<svg width="26" height="23" viewBox="0 0 26 23" fill="none" xmlns="http://www.w3.org/2000/svg">
<path d="M13 16.6391C12.7833 16.6391 12.5802 16.6089 12.3906 16.5485C12.201 16.4891 12.025 16.3875 11.8625 16.2437L6.0125 11.0687C5.71458 10.8052 5.56563 10.4698 5.56563 10.0625C5.56563 9.65521 5.71458 9.31979 6.0125 9.05625C6.31042 8.79271 6.69608 8.65471 7.1695 8.64225C7.644 8.63075 8.03021 8.75677 8.32812 9.02031L11.375 11.7156V1.4375C11.375 1.03021 11.531 0.688563 11.843 0.412563C12.1539 0.137521 12.5396 0 13 0C13.4604 0 13.8466 0.137521 14.1586 0.412563C14.4695 0.688563 14.625 1.03021 14.625 1.4375V11.7156L17.6719 9.02031C17.9698 8.75677 18.356 8.63075 18.8305 8.64225C19.3039 8.65471 19.6896 8.79271 19.9875 9.05625C20.2854 9.31979 20.4344 9.65521 20.4344 10.0625C20.4344 10.4698 20.2854 10.8052 19.9875 11.0687L14.1375 16.2437C13.975 16.3875 13.799 16.4891 13.6094 16.5485C13.4198 16.6089 13.2167 16.6391 13 16.6391ZM3.25 23C2.35625 23 1.59142 22.7187 0.9555 22.1562C0.3185 21.5927 0 20.9156 0 20.125V17.25C0 16.8427 0.155459 16.5011 0.466375 16.2251C0.778375 15.95 1.16458 15.8125 1.625 15.8125C2.08542 15.8125 2.47162 15.95 2.78362 16.2251C3.09454 16.5011 3.25 16.8427 3.25 17.25V20.125H22.75V17.25C22.75 16.8427 22.906 16.5011 23.218 16.2251C23.5289 15.95 23.9146 15.8125 24.375 15.8125C24.8354 15.8125 25.2211 15.95 25.532 16.2251C25.844 16.5011 26 16.8427 26 17.25V20.125C26 20.9156 25.682 21.5927 25.0461 22.1562C24.4091 22.7187 23.6437 23 22.75 23H3.25Z" fill="#003660"/>
</svg>
