<svg width="25" height="24" viewBox="0 0 25 24" fill="none" xmlns="http://www.w3.org/2000/svg">
<g id="group">
<mask id="mask0_1780_399" style="mask-type:alpha" maskUnits="userSpaceOnUse" x="0" y="0" width="25" height="24">
<rect id="Bounding box" x="0.5" width="24" height="24" fill="#D9D9D9"/>
</mask>
<g mask="url(#mask0_1780_399)">
<path id="group_2" d="M1.31494 17.2901C1.31494 16.6862 1.47111 16.1313 1.78344 15.6253C2.09577 15.1191 2.51077 14.7329 3.02844 14.4666C4.07377 13.9459 5.13761 13.5544 6.21994 13.2921C7.30244 13.0297 8.40186 12.8986 9.51819 12.8986C10.642 12.8986 11.7453 13.0287 12.8279 13.2891C13.9106 13.5494 14.9705 13.9399 16.0077 14.4606C16.5254 14.7264 16.9404 15.1118 17.2529 15.6168C17.5653 16.1218 17.7214 16.6796 17.7214 17.2901V18.0303C17.7214 18.66 17.4997 19.1966 17.0562 19.6401C16.6127 20.0836 16.0761 20.3053 15.4464 20.3053H3.58994C2.96011 20.3053 2.42352 20.0836 1.98019 19.6401C1.53669 19.1966 1.31494 18.66 1.31494 18.0303V17.2901ZM21.4104 20.3053H19.0459C19.2731 19.9693 19.4424 19.6076 19.5539 19.2201C19.6656 18.8326 19.7214 18.436 19.7214 18.0303V17.1378C19.7214 16.3766 19.5173 15.6316 19.1089 14.9028C18.7006 14.174 18.0935 13.55 17.2877 13.0308C18.1099 13.1348 18.9009 13.3126 19.6607 13.5641C20.4207 13.8157 21.1237 14.1146 21.7697 14.4606C22.3857 14.7939 22.859 15.1873 23.1897 15.6408C23.5202 16.0941 23.6854 16.5891 23.6854 17.1258V18.0303C23.6854 18.66 23.4637 19.1966 23.0202 19.6401C22.5769 20.0836 22.0403 20.3053 21.4104 20.3053ZM9.51819 11.8986C8.38619 11.8986 7.41961 11.498 6.61844 10.6968C5.81711 9.89548 5.41644 8.9289 5.41644 7.79706C5.41644 6.66523 5.81711 5.69865 6.61844 4.89731C7.41961 4.09598 8.38619 3.69531 9.51819 3.69531C10.65 3.69531 11.6166 4.09598 12.4179 4.89731C13.2191 5.69865 13.6197 6.66523 13.6197 7.79706C13.6197 8.9289 13.2191 9.89548 12.4179 10.6968C11.6166 11.498 10.65 11.8986 9.51819 11.8986ZM19.8112 7.79706C19.8112 8.9249 19.4096 9.89048 18.6064 10.6938C17.8034 11.497 16.8381 11.8986 15.7104 11.8986C15.5224 11.8986 15.2888 11.8768 15.0094 11.8333C14.7301 11.7896 14.4908 11.7388 14.2914 11.6808C14.7494 11.1395 15.1003 10.5361 15.3439 9.87081C15.5876 9.20548 15.7094 8.51448 15.7094 7.79781C15.7094 7.08131 15.5876 6.39015 15.3439 5.72431C15.1003 5.05831 14.7494 4.45465 14.2914 3.91331C14.5288 3.82598 14.7641 3.76781 14.9974 3.73881C15.2308 3.70981 15.4672 3.69531 15.7067 3.69531C16.8354 3.69531 17.8016 4.09698 18.6054 4.90031C19.4093 5.70348 19.8112 6.66906 19.8112 7.79706ZM3.58994 18.0303H15.4464V17.3198C15.4464 17.1403 15.4006 16.9771 15.3089 16.8303C15.2173 16.6835 15.0964 16.5693 14.9464 16.4878C14.0703 16.0538 13.1799 15.7263 12.2752 15.5053C11.3705 15.2841 10.4515 15.1736 9.51819 15.1736C8.59286 15.1736 7.67377 15.2841 6.76094 15.5053C5.84827 15.7263 4.95794 16.0538 4.08994 16.4878C3.93994 16.5693 3.81911 16.6835 3.72744 16.8303C3.63577 16.9771 3.58994 17.1403 3.58994 17.3198V18.0303ZM9.51719 9.71331C10.0439 9.71331 10.4951 9.52581 10.8709 9.15081C11.2466 8.77565 11.4344 8.32473 11.4344 7.79806C11.4344 7.27123 11.2469 6.81998 10.8717 6.44431C10.4967 6.06865 10.0459 5.88081 9.51919 5.88081C8.99236 5.88081 8.54111 6.06831 8.16544 6.44331C7.78977 6.81848 7.60194 7.2694 7.60194 7.79606C7.60194 8.32273 7.78944 8.77398 8.16444 9.14981C8.53961 9.52548 8.99053 9.71331 9.51719 9.71331Z" fill="#1C1B1F"/>
</g>
</g>
</svg>
