<svg width="25" height="24" viewBox="0 0 25 24" fill="none" xmlns="http://www.w3.org/2000/svg">
<g id="groups">
<mask id="mask0_1780_405" style="mask-type:alpha" maskUnits="userSpaceOnUse" x="0" y="0" width="25" height="24">
<rect id="Bounding box" x="0.5" width="24" height="24" fill="#D9D9D9"/>
</mask>
<g mask="url(#mask0_1780_405)">
<path id="groups_2" d="M1.5418 18.0955C1.22263 18.0955 0.953297 17.9857 0.733797 17.766C0.51413 17.5465 0.404297 17.2772 0.404297 16.958V16.4248C0.404297 15.6763 0.780964 15.069 1.5343 14.603C2.28763 14.137 3.27621 13.904 4.50005 13.904C4.68488 13.904 4.8603 13.9072 5.0263 13.9135C5.19246 13.9198 5.3553 13.9357 5.5148 13.9612C5.26946 14.3271 5.08646 14.7113 4.9658 15.114C4.84513 15.5168 4.7848 15.9371 4.7848 16.3748V18.0955H1.5418ZM7.5418 18.0955C7.22263 18.0955 6.9533 17.9857 6.7338 17.766C6.51413 17.5465 6.4043 17.2772 6.4043 16.958V16.3748C6.4043 15.8294 6.55113 15.329 6.8448 14.8735C7.13846 14.4178 7.55796 14.0193 8.1033 13.678C8.64863 13.3367 9.29713 13.0807 10.0488 12.91C10.8003 12.7393 11.6173 12.654 12.4998 12.654C13.3993 12.654 14.2238 12.7393 14.9733 12.91C15.723 13.0807 16.3705 13.3367 16.9158 13.678C17.4611 14.0193 17.8775 14.4178 18.1648 14.8735C18.4521 15.329 18.5958 15.8294 18.5958 16.3748V16.958C18.5958 17.2772 18.486 17.5465 18.2663 17.766C18.0468 17.9857 17.7775 18.0955 17.4583 18.0955H7.5418ZM20.2153 18.0955V16.3748C20.2153 15.9201 20.1581 15.4916 20.0438 15.0892C19.9295 14.6869 19.758 14.3109 19.5293 13.9612C19.6888 13.9357 19.8486 13.9198 20.0088 13.9135C20.1691 13.9072 20.3329 13.904 20.5 13.904C21.7287 13.904 22.7185 14.1336 23.4693 14.5927C24.2203 15.0517 24.5958 15.6624 24.5958 16.4248V16.958C24.5958 17.2772 24.486 17.5465 24.2663 17.766C24.0468 17.9857 23.7775 18.0955 23.4583 18.0955H20.2153ZM8.7983 15.934H16.2268C16.0161 15.6285 15.5526 15.3647 14.8363 15.1427C14.1198 14.9206 13.342 14.8095 12.503 14.8095C11.664 14.8095 10.8853 14.9206 10.1668 15.1427C9.44846 15.3647 8.9923 15.6285 8.7983 15.934ZM4.50055 12.928C3.93421 12.928 3.4493 12.7264 3.0458 12.3232C2.64213 11.9201 2.4403 11.4354 2.4403 10.8693C2.4403 10.2859 2.64188 9.79667 3.04505 9.4015C3.44821 9.00617 3.93288 8.8085 4.49905 8.8085C5.08238 8.8085 5.57163 9.00583 5.9668 9.4005C6.36213 9.79517 6.5598 10.2842 6.5598 10.8677C6.5598 11.4341 6.36246 11.919 5.9678 12.3225C5.57313 12.7262 5.08405 12.928 4.50055 12.928ZM20.5005 12.928C19.9342 12.928 19.4493 12.7264 19.0458 12.3232C18.6421 11.9201 18.4403 11.4354 18.4403 10.8693C18.4403 10.2859 18.6419 9.79667 19.045 9.4015C19.4482 9.00617 19.9329 8.8085 20.499 8.8085C21.0824 8.8085 21.5716 9.00583 21.9668 9.4005C22.3621 9.79517 22.5598 10.2842 22.5598 10.8677C22.5598 11.4341 22.3625 11.919 21.9678 12.3225C21.5731 12.7262 21.084 12.928 20.5005 12.928ZM12.5 11.91C11.6402 11.91 10.9093 11.6091 10.3073 11.0072C9.7053 10.4052 9.4043 9.67433 9.4043 8.8145C9.4043 7.9405 9.7053 7.20608 10.3073 6.61125C10.9093 6.01625 11.6402 5.71875 12.5 5.71875C13.3739 5.71875 14.1083 6.01625 14.7033 6.61125C15.2983 7.20608 15.5958 7.9405 15.5958 8.8145C15.5958 9.67433 15.2983 10.4052 14.7033 11.0072C14.1083 11.6091 13.3739 11.91 12.5 11.91ZM12.503 9.75475C12.7684 9.75475 12.991 9.66383 13.1708 9.482C13.3505 9.30033 13.4403 9.07683 13.4403 8.8115C13.4403 8.546 13.3502 8.32342 13.17 8.14375C12.9897 7.96408 12.7664 7.87425 12.5 7.87425C12.2367 7.87425 12.0141 7.96433 11.8323 8.1445C11.6506 8.32467 11.5598 8.548 11.5598 8.8145C11.5598 9.07783 11.6506 9.30033 11.8323 9.482C12.0141 9.66383 12.2377 9.75475 12.503 9.75475Z" fill="#1C1B1F"/>
</g>
</g>
</svg>
