<svg width="25" height="24" viewBox="0 0 25 24" fill="none" xmlns="http://www.w3.org/2000/svg">
<g id="house">
<mask id="mask0_1780_393" style="mask-type:alpha" maskUnits="userSpaceOnUse" x="0" y="0" width="25" height="24">
<rect id="Bounding box" x="0.5" width="24" height="24" fill="#D9D9D9"/>
</mask>
<g mask="url(#mask0_1780_393)">
<path id="house_2" d="M7.44604 20.2033C6.87138 20.2033 6.37938 19.9987 5.97004 19.5896C5.56088 19.1802 5.35629 18.6882 5.35629 18.1136V11.1311L3.57754 12.4886C3.31621 12.6832 3.03229 12.7631 2.72579 12.7281C2.41929 12.6931 2.17079 12.545 1.98029 12.2838C1.79363 12.0265 1.71996 11.7456 1.75929 11.4411C1.79863 11.1366 1.94688 10.889 2.20404 10.6983L11.1073 3.85331C11.3146 3.69614 11.5374 3.58022 11.7755 3.50555C12.0139 3.43089 12.2553 3.39355 12.4998 3.39355C12.7443 3.39355 12.9857 3.43089 13.224 3.50555C13.4622 3.58022 13.685 3.69614 13.8923 3.85331L16.3743 5.75706V5.33855C16.3743 4.91039 16.528 4.54639 16.8355 4.24655C17.1432 3.94672 17.5353 3.7968 18.0118 3.7968C18.4683 3.7968 18.8543 3.95597 19.1698 4.2743C19.4855 4.5928 19.6433 4.97947 19.6433 5.4343V8.27231L22.8073 10.6983C23.052 10.889 23.1961 11.1366 23.2398 11.4411C23.2835 11.7456 23.212 12.0265 23.0253 12.2838C22.8348 12.545 22.5863 12.6931 22.2798 12.7281C21.9731 12.7631 21.6892 12.6832 21.428 12.4886L19.6433 11.1251V18.1136C19.6433 18.6882 19.4393 19.1802 19.0313 19.5896C18.6231 19.9987 18.1325 20.2033 17.5595 20.2033H15.4698C14.8951 20.2033 14.4032 19.9987 13.994 19.5896C13.5849 19.1802 13.3803 18.6882 13.3803 18.1136V14.2273H11.6193V18.1136C11.6193 18.6882 11.4153 19.1802 11.0073 19.5896C10.5993 19.9987 10.1087 20.2033 9.53554 20.2033H7.44604ZM7.63129 17.9283H9.40404V14.0958C9.40404 13.5228 9.60871 13.0322 10.018 12.6241C10.4272 12.2161 10.9191 12.0121 11.4938 12.0121H13.5118C14.0848 12.0121 14.5753 12.2161 14.9833 12.6241C15.3915 13.0322 15.5955 13.5228 15.5955 14.0958V17.9283H17.3683V9.37881L12.4998 5.65656L7.63129 9.37881V17.9283ZM10.452 10.2701H14.5475C14.5475 9.72089 14.3435 9.26647 13.9355 8.90681C13.5277 8.54731 13.0491 8.36756 12.4998 8.36756C11.9505 8.36756 11.4719 8.54731 11.064 8.90681C10.656 9.26647 10.452 9.72089 10.452 10.2701Z" fill="#1C1B1F"/>
</g>
</g>
</svg>
