<svg width="15" height="15" viewBox="0 0 15 15" fill="none" xmlns="http://www.w3.org/2000/svg">
<path d="M0 5.46084C0 3.59108 0 2.65619 0.363881 1.94203C0.683963 1.31384 1.1947 0.803103 1.82289 0.483022C2.53705 0.119141 3.47194 0.119141 5.3417 0.119141L9.4183 0.119141C11.2881 0.119141 12.223 0.119141 12.9371 0.483022C13.5653 0.803103 14.076 1.31384 14.3961 1.94203C14.76 2.65619 14.76 3.59108 14.76 5.46084V9.53744C14.76 11.4072 14.76 12.3421 14.3961 13.0562C14.076 13.6844 13.5653 14.1952 12.9371 14.5153C12.223 14.8791 11.2881 14.8791 9.4183 14.8791H5.3417C3.47194 14.8791 2.53705 14.8791 1.82289 14.5153C1.1947 14.1952 0.683963 13.6844 0.363881 13.0562C0 12.3421 0 11.4072 0 9.53744L0 5.46084Z" fill="#001E36"/>
<path d="M3.16284 10.9338V4.44316C3.16284 4.39904 3.18129 4.37379 3.22434 4.37379C3.85988 4.37379 4.49514 4.33594 5.13082 4.33594C6.16239 4.33594 7.2793 4.68865 7.67081 5.76776C7.76306 6.0327 7.81224 6.30392 7.81224 6.58779C7.81224 7.13027 7.68926 7.57808 7.44324 7.93132C6.75606 8.91802 5.56503 8.90268 4.49741 8.90268V10.9275C4.50574 10.9874 4.45466 11.0158 4.40516 11.0158H3.23664C3.18744 11.0158 3.16284 10.9905 3.16284 10.9338ZM4.50352 5.59117V7.71055C4.92687 7.74154 5.36983 7.74492 5.77657 7.60965C6.22565 7.48008 6.47156 7.09142 6.47156 6.62564C6.484 6.22875 6.26777 5.84794 5.89961 5.70472C5.49777 5.53761 4.93731 5.5276 4.50352 5.59117Z" fill="#31A8FF"/>
<path d="M11.6481 7.29116C11.462 7.19306 11.2638 7.12131 11.0589 7.07787C10.7956 7.01594 9.75727 6.79896 9.75685 7.34192C9.76608 7.64503 10.2473 7.79352 10.4598 7.88013C11.2062 8.13638 12.0508 8.59441 12.0342 9.51517C12.057 10.6614 10.9465 11.1196 9.99449 11.1197C9.49892 11.1249 8.98264 11.0481 8.52908 10.8353C8.48575 10.8124 8.45792 10.7634 8.45976 10.7135V9.6167C8.45486 9.57274 8.50209 9.53431 8.53899 9.56594C8.98337 9.83467 9.5101 9.96519 10.0242 9.97215C10.2512 9.97215 10.7009 9.95017 10.6975 9.6167C10.6975 9.29672 10.1595 9.1496 9.94499 9.06831C9.63408 8.95735 9.3393 8.80358 9.06872 8.61133C8.69055 8.34159 8.45333 7.90913 8.45976 7.43333C8.45755 6.35405 9.47984 5.86961 10.4005 5.8694C10.8309 5.86582 11.2931 5.89771 11.6937 6.07251C11.7513 6.08943 11.7632 6.15016 11.763 6.2045V7.23022C11.7666 7.2939 11.6959 7.31556 11.6481 7.29116Z" fill="#31A8FF"/>
</svg>
