<svg width="16" height="15" viewBox="0 0 16 15" fill="none" xmlns="http://www.w3.org/2000/svg">
<path d="M0.52002 5.46084C0.52002 3.59108 0.52002 2.65619 0.883901 1.94203C1.20398 1.31384 1.71472 0.803103 2.34291 0.483022C3.05707 0.119141 3.99196 0.119141 5.86172 0.119141L9.93832 0.119141C11.8081 0.119141 12.743 0.119141 13.4571 0.483022C14.0853 0.803103 14.5961 1.31384 14.9161 1.94203C15.28 2.65619 15.28 3.59108 15.28 5.46084V9.53744C15.28 11.4072 15.28 12.3421 14.9161 13.0562C14.5961 13.6844 14.0853 14.1952 13.4571 14.5153C12.743 14.8791 11.8081 14.8791 9.93832 14.8791H5.86172C3.99196 14.8791 3.05707 14.8791 2.34291 14.5153C1.71472 14.1952 1.20398 13.6844 0.883901 13.0562C0.52002 12.3421 0.52002 11.4072 0.52002 9.53744V5.46084Z" fill="#00005B"/>
<path d="M3.68286 10.5538V3.91822C3.68286 3.87308 3.70136 3.84729 3.74454 3.84729C4.38198 3.84729 5.01912 3.80859 5.65675 3.80859C6.69132 3.80859 7.8116 4.16918 8.20427 5.27242C8.29678 5.54326 8.34613 5.82054 8.34613 6.11073C8.34613 6.66529 8.22277 7.12311 7.97602 7.48426C7.28683 8.493 6.09222 8.47734 5.02138 8.47734V10.5473C5.02976 10.6086 4.97853 10.6376 4.92887 10.6376H3.75688C3.70754 10.6376 3.68286 10.6118 3.68286 10.5538ZM5.02755 5.09187V7.25853C5.45216 7.29027 5.89644 7.29369 6.3044 7.15537C6.75479 7.02295 7.00144 6.62559 7.00144 6.14942C7.01398 5.74368 6.79706 5.35433 6.4278 5.20795C6.02475 5.0371 5.46265 5.02687 5.02755 5.09187Z" fill="#9999FF"/>
<path d="M9.18227 5.50092H10.2648C10.3245 5.5015 10.3781 5.54457 10.3939 5.60477C10.4732 5.7889 10.483 6.01099 10.4833 6.20977C10.6689 5.98379 10.8927 5.79554 11.1437 5.65432C11.4128 5.49518 11.7178 5.41447 12.0269 5.42074C12.0783 5.41305 12.1237 5.46054 12.1163 5.51415V6.77039C12.1163 6.81894 12.0831 6.84308 12.017 6.84308C11.5588 6.81003 10.8455 6.92321 10.5126 7.2999V10.5663C10.5126 10.6286 10.4861 10.6598 10.4331 10.6598H9.27167C9.21464 10.6683 9.1643 10.6146 9.17236 10.5559V7.00918C9.17236 6.53396 9.18222 6.04441 9.11279 5.57362C9.10209 5.53028 9.14173 5.49001 9.18227 5.50092Z" fill="#9999FF"/>
</svg>
