<svg width="20" height="17" viewBox="0 0 20 17" fill="none" xmlns="http://www.w3.org/2000/svg">
<path d="M0.280029 15.2012C0.280029 15.9064 0.85615 16.4775 1.56598 16.4775H1.58446C0.863764 16.4775 0.280029 15.9064 0.280029 15.2012Z" fill="#FBBC05"/>
<path d="M11.3306 5.3098V8.64217L15.8233 5.01836V1.7998C15.8233 1.09461 15.2472 0.523438 14.5374 0.523438L4.80411 0.523438L4.79541 5.3098L11.3306 5.3098Z" fill="#FBBC05"/>
<path d="M11.3309 11.9769L4.78483 11.9769L4.77722 16.4793H14.5376C15.2486 16.4793 15.8236 15.9081 15.8236 15.2029L15.8236 12.2971L11.3309 8.64453V11.9769Z" fill="#34A853"/>
<path d="M4.80424 0.523438L0.280029 5.3098L4.79663 5.3098L4.80424 0.523438Z" fill="#EA4335"/>
<path d="M0.280029 11.9766L0.280029 15.2026C0.280029 15.9078 0.863764 16.4789 1.58446 16.4789H4.77707L4.78468 11.9766H0.280029Z" fill="#1967D2"/>
<path d="M4.79663 5.31055L0.280029 5.31055L0.280029 11.9764H4.78468L4.79663 5.31055Z" fill="#4285F4"/>
<path d="M19.7735 14.0664V3.11095C19.5202 1.65696 17.9256 3.32368 17.9256 3.32368L15.8243 5.01805L15.8243 12.2944L18.8321 14.7397C19.9181 14.8822 19.7735 14.0664 19.7735 14.0664Z" fill="#34A853"/>
<path d="M11.3306 8.64228L15.8244 12.2959V5.01953L11.3306 8.64228Z" fill="#188038"/>
</svg>
