<svg width="18" height="19" viewBox="0 0 18 19" fill="none" xmlns="http://www.w3.org/2000/svg">
<path d="M3.21157 3.74578C3.76244 4.19326 3.9692 4.15929 5.00447 4.08988L14.7627 3.50431C14.9695 3.50431 14.7974 3.29755 14.7288 3.26359L13.1072 2.09171C12.7971 1.85098 12.3828 1.57481 11.5897 1.64348L2.1416 2.33317C1.79749 2.36714 1.72808 2.53993 1.86543 2.67728L3.21157 3.74578ZM3.79714 6.02012L3.79714 16.2872C3.79714 16.8388 4.07258 17.0455 4.69359 17.0108L15.4177 16.3906C16.0387 16.3566 16.1081 15.977 16.1081 15.5288V5.33044C16.1081 4.88295 15.9361 4.64149 15.5558 4.67545L4.34875 5.33044C3.93523 5.36514 3.79714 5.57264 3.79714 6.02012ZM14.3839 6.57025C14.4526 6.88039 14.3839 7.19053 14.0738 7.22597L13.5569 7.32935V14.9085C13.1079 15.15 12.6944 15.2881 12.3496 15.2881C11.7972 15.2881 11.6591 15.1153 11.2456 14.5991L7.86586 9.29282L7.86586 14.4263L8.9351 14.6685C8.9351 14.6685 8.9351 15.2888 8.07262 15.2888L5.69342 15.4262C5.62474 15.2888 5.69342 14.944 5.93488 14.8753L6.55516 14.7033L6.55516 7.91492L5.69489 7.84551C5.62548 7.53537 5.79827 7.08789 6.28046 7.05318L8.83246 6.88113L12.3503 12.2561V7.50066L11.4531 7.39802C11.3845 7.01847 11.6599 6.74304 12.0047 6.70907L14.3839 6.57025ZM1.34853 1.40276L11.177 0.679102C12.3835 0.575723 12.6944 0.644396 13.4528 1.196L16.5903 3.40093C17.1072 3.77974 17.28 3.88312 17.28 4.29664L17.28 16.3906C17.28 17.1482 17.0046 17.5971 16.0395 17.6651L4.62492 18.3548C3.90126 18.3895 3.55568 18.2861 3.17613 17.8032L0.8656 14.8052C0.452082 14.2536 0.280029 13.8408 0.280029 13.3578L0.280029 2.60787C0.280029 1.98833 0.5562 1.47069 1.34853 1.40276Z" fill="black"/>
</svg>
