<svg width="16" height="15" viewBox="0 0 16 15" fill="none" xmlns="http://www.w3.org/2000/svg">
<path d="M0.76001 5.46084C0.76001 3.59108 0.76001 2.65619 1.12389 1.94203C1.44397 1.31384 1.95471 0.803103 2.5829 0.483022C3.29706 0.119141 4.23195 0.119141 6.10171 0.119141L10.1783 0.119141C12.0481 0.119141 12.983 0.119141 13.6971 0.483022C14.3253 0.803103 14.836 1.31384 15.1561 1.94203C15.52 2.65619 15.52 3.59108 15.52 5.46084V9.53744C15.52 11.4072 15.52 12.3421 15.1561 13.0562C14.836 13.6844 14.3253 14.1952 13.6971 14.5153C12.983 14.8791 12.0481 14.8791 10.1783 14.8791H6.10171C4.23195 14.8791 3.29706 14.8791 2.5829 14.5153C1.95471 14.1952 1.44397 13.6844 1.12389 13.0562C0.76001 12.3421 0.76001 11.4072 0.76001 9.53744V5.46084Z" fill="#330000"/>
<path d="M7.91259 9.39472H5.62537L5.16001 10.8774C5.1471 10.9325 5.09638 10.9715 5.04119 10.9688H3.88271C3.81665 10.9688 3.79355 10.9316 3.8134 10.8571L5.79369 5.00757C5.81351 4.94664 5.83333 4.87726 5.8531 4.7994C5.87903 4.66388 5.89227 4.52619 5.89274 4.38813C5.88705 4.34733 5.92289 4.31129 5.96201 4.31701H7.53637C7.5825 4.31701 7.60885 4.33394 7.61555 4.36778L9.86323 10.8672C9.883 10.935 9.86323 10.9688 9.80382 10.9688H8.51659C8.47147 10.9739 8.42835 10.943 8.4176 10.8977L7.91259 9.39472ZM5.98183 8.11513H7.54628C7.28925 7.23681 6.99916 6.37003 6.76405 5.4849C6.51039 6.37156 6.23364 7.25462 5.98183 8.11513Z" fill="#FF9A00"/>
<path d="M11.1998 5.39308C11.0988 5.39725 10.9981 5.37948 10.9042 5.341C10.8104 5.30252 10.7255 5.24411 10.6552 5.16968C10.5851 5.09198 10.5306 5.00089 10.4949 4.90152C10.4592 4.80221 10.443 4.69662 10.4472 4.59082C10.4437 4.48608 10.4616 4.38176 10.5 4.28463C10.5384 4.18751 10.5964 4.09979 10.6701 4.02719C10.743 3.95535 10.8292 3.89906 10.9235 3.86158C11.0178 3.8241 11.1185 3.80619 11.2196 3.80885C11.4573 3.80885 11.6437 3.88164 11.779 4.02719C11.8473 4.10284 11.9004 4.19155 11.9353 4.28827C11.9701 4.38497 11.986 4.48782 11.982 4.59082C11.9861 4.69699 11.9694 4.803 11.9328 4.90242C11.8963 5.00184 11.8406 5.09271 11.7691 5.16968C11.6944 5.24522 11.6052 5.30405 11.5073 5.34253C11.4093 5.38096 11.3046 5.39819 11.1998 5.39308ZM10.5166 10.8668V6.01258C10.5166 5.95164 10.5429 5.92117 10.5958 5.92117H11.8137C11.8664 5.92117 11.8928 5.95164 11.8929 6.01258V10.8668C11.8929 10.9346 11.8665 10.9685 11.8137 10.9684H10.6057C10.5463 10.9684 10.5166 10.9346 10.5166 10.8668Z" fill="#FF9A00"/>
</svg>
