<svg width="25" height="24" viewBox="0 0 25 24" fill="none" xmlns="http://www.w3.org/2000/svg">
<path id="Vector" fill-rule="evenodd" clip-rule="evenodd" d="M0.5 12C0.5 5.37259 5.87258 0 12.5 0C19.1273 0 24.5 5.37259 24.5 12C24.5 18.6273 19.1273 24 12.5 24C5.87258 24 0.5 18.6273 0.5 12ZM12.5 1.72131C6.82323 1.72131 2.22131 6.32325 2.22131 12C2.22131 14.6673 3.2373 17.0973 4.90341 18.9241C6.50418 16.4235 9.308 14.7634 12.5007 14.7634C15.693 14.7634 18.4964 16.4231 20.0974 18.9232C21.7629 17.0966 22.7787 14.6669 22.7787 12C22.7787 6.32325 18.1766 1.72131 12.5 1.72131ZM18.809 20.1153C17.5444 17.9424 15.1922 16.4847 12.5007 16.4847C9.80881 16.4847 7.45633 17.9428 6.192 20.116C7.93337 21.4715 10.1224 22.2787 12.5 22.2787C14.878 22.2787 17.0674 21.4711 18.809 20.1153ZM8.24225 10.1971C8.24225 7.84551 10.1486 5.93914 12.5002 5.93914C14.8519 5.93914 16.7582 7.84551 16.7582 10.1971C16.7582 12.5488 14.8519 14.4551 12.5002 14.4551C10.1486 14.4551 8.24225 12.5488 8.24225 10.1971ZM12.5002 7.66046C11.0993 7.66046 9.96357 8.79617 9.96357 10.1971C9.96357 11.5981 11.0993 12.7338 12.5002 12.7338C13.9012 12.7338 15.0369 11.5981 15.0369 10.1971C15.0369 8.79617 13.9012 7.66046 12.5002 7.66046Z" fill="#020617"/>
</svg>
