<svg width="127" height="20" viewBox="0 0 127 20" fill="none" xmlns="http://www.w3.org/2000/svg">
<g id="Vector">
<path d="M5.65805 5.72808C6.47973 5.72808 7.18009 5.83022 7.75913 6.03452C8.34369 6.23881 8.82071 6.5143 9.19019 6.86098C9.56519 7.20766 9.83816 7.61315 10.0091 8.07746C10.1801 8.54177 10.2656 9.03393 10.2656 9.55395C10.2656 9.77063 10.2352 9.96254 10.1746 10.1297C10.1139 10.2968 10.0312 10.4392 9.9264 10.5569C9.82714 10.6745 9.70581 10.7642 9.56243 10.8261C9.41905 10.8881 9.26464 10.919 9.0992 10.919C8.95582 10.919 8.80968 10.8911 8.66078 10.8354C8.51189 10.7797 8.37126 10.6899 8.23891 10.5661C8.10656 10.4423 7.98799 10.2814 7.88321 10.0833C7.77844 9.88515 7.69847 9.64372 7.64333 9.35894C7.59921 9.15465 7.53303 8.97512 7.4448 8.82035C7.35656 8.66558 7.25454 8.53557 7.13873 8.43033C7.02844 8.3189 6.90436 8.23842 6.7665 8.18889C6.63414 8.13318 6.50179 8.10532 6.36944 8.10532C6.13231 8.10532 5.92551 8.16104 5.74904 8.27247C5.57808 8.3839 5.4347 8.54796 5.3189 8.76463C5.20309 8.97512 5.11761 9.23513 5.06246 9.54467C5.00732 9.84801 4.97974 10.1916 4.97974 10.5754C4.97974 12.0612 5.17827 13.1631 5.57533 13.8813C5.9779 14.5932 6.62036 14.9492 7.5027 14.9492C7.75638 14.9492 8.01557 14.912 8.28027 14.8377C8.54497 14.7573 8.79038 14.6706 9.01648 14.5777C9.24258 14.4849 9.43835 14.4013 9.60379 14.327C9.76923 14.2465 9.88228 14.2063 9.94294 14.2063C10.0698 14.2063 10.169 14.2682 10.2407 14.392C10.3124 14.5096 10.3483 14.6458 10.3483 14.8006C10.3483 14.8501 10.3455 14.8966 10.34 14.9399C10.34 14.9832 10.3317 15.0266 10.3152 15.0699C10.1553 15.528 9.92916 15.9521 9.63688 16.3421C9.3446 16.7259 8.99442 17.0633 8.58634 17.3543C8.18376 17.6391 7.72605 17.8619 7.21318 18.0229C6.70032 18.1838 6.14334 18.2643 5.54224 18.2643C4.9246 18.2643 4.35934 18.1838 3.84648 18.0229C3.33362 17.8557 2.87038 17.6267 2.45678 17.3357C2.0487 17.0385 1.69025 16.6919 1.38142 16.2957C1.07812 15.8995 0.821685 15.4692 0.612128 15.0049C0.408085 14.5344 0.253675 14.0453 0.148896 13.5377C0.049632 13.0239 0 12.5069 0 11.9869C0 11.4607 0.0523893 10.9407 0.157168 10.4268C0.261947 9.90682 0.419115 9.41466 0.628672 8.95035C0.838229 8.48605 1.10018 8.05889 1.41451 7.66887C1.72885 7.27266 2.09557 6.93217 2.51469 6.6474C2.9338 6.35644 3.40531 6.13047 3.9292 5.96951C4.45309 5.80856 5.02938 5.72808 5.65805 5.72808Z" fill="black"/>
<path d="M36.7525 6.87027C36.8462 6.80217 36.9676 6.70621 37.1165 6.5824C37.2709 6.45239 37.497 6.32548 37.7948 6.20167C38.0926 6.07166 38.4869 5.96023 38.9777 5.86737C39.4685 5.77451 40.0999 5.72808 40.8719 5.72808C41.451 5.72808 41.9556 5.80546 42.3857 5.96023C42.8159 6.115 43.1826 6.32548 43.4859 6.59168C43.7947 6.85789 44.0484 7.17361 44.2469 7.53887C44.4454 7.89793 44.6026 8.28794 44.7184 8.70891C44.8342 9.12369 44.9142 9.55705 44.9583 10.009C45.0024 10.4609 45.0245 10.9097 45.0245 11.3555V11.4483C45.019 12.185 45.0135 12.7546 45.0079 13.157C45.0079 13.5532 45.0079 13.8441 45.0079 14.0299C45.0079 14.2156 45.0079 14.327 45.0079 14.3642C45.0079 14.3951 45.0079 14.4106 45.0079 14.4106C45.0079 14.6706 45.0383 14.8749 45.0989 15.0235C45.1596 15.1659 45.2341 15.2773 45.3223 15.3578C45.416 15.4321 45.5153 15.4847 45.6201 15.5156C45.7304 15.5404 45.8296 15.5713 45.9179 15.6085C46.0116 15.6394 46.0888 15.6859 46.1495 15.7478C46.2101 15.8035 46.2405 15.8995 46.2405 16.0357C46.2405 16.3885 46.1605 16.6919 46.0006 16.9457C45.8462 17.1933 45.6173 17.4007 45.314 17.5679C45.0107 17.7288 44.6357 17.8464 44.189 17.9207C43.7478 17.995 43.2405 18.0322 42.667 18.0322C42.11 18.0322 41.6137 17.995 41.178 17.9207C40.7479 17.8464 40.3839 17.7288 40.0861 17.5679C39.7883 17.4007 39.5622 17.1933 39.4078 16.9457C39.2534 16.6919 39.1762 16.3885 39.1762 16.0357C39.1762 15.8995 39.1955 15.8035 39.2341 15.7478C39.2782 15.6859 39.3306 15.6394 39.3913 15.6085C39.4519 15.5775 39.5181 15.5497 39.5898 15.5249C39.6615 15.5002 39.7277 15.4537 39.7883 15.3856C39.849 15.3113 39.8986 15.2092 39.9372 15.0792C39.9813 14.943 40.0034 14.748 40.0034 14.4942V10.5011C40.0034 10.1235 39.9813 9.7861 39.9372 9.48895C39.8986 9.19179 39.8324 8.94107 39.7387 8.73677C39.6449 8.53248 39.5181 8.37771 39.3582 8.27247C39.2038 8.16104 39.008 8.10532 38.7709 8.10532C38.4069 8.10532 38.1422 8.23532 37.9767 8.49534C37.8168 8.74916 37.7369 9.08036 37.7369 9.48895V14.3827C37.7369 14.6489 37.7589 14.8563 37.803 15.0049C37.8472 15.1535 37.9023 15.268 37.9685 15.3485C38.0402 15.4228 38.1146 15.4754 38.1918 15.5063C38.2745 15.5373 38.349 15.5713 38.4152 15.6085C38.4869 15.6394 38.5448 15.6859 38.5889 15.7478C38.633 15.8035 38.6551 15.8995 38.6551 16.0357C38.6551 16.3885 38.5916 16.6919 38.4648 16.9457C38.3435 17.1933 38.1505 17.4007 37.8858 17.5679C37.6266 17.7288 37.2902 17.8464 36.8766 17.9207C36.4685 17.995 35.9749 18.0322 35.3959 18.0322C34.8389 18.0322 34.3426 17.995 33.9069 17.9207C33.4768 17.8464 33.1128 17.7288 32.815 17.5679C32.5172 17.4007 32.2911 17.1933 32.1367 16.9457C31.9823 16.6919 31.9051 16.3885 31.9051 16.0357C31.9051 15.8995 31.9244 15.8035 31.963 15.7478C32.0071 15.6859 32.0595 15.6394 32.1202 15.6085C32.1808 15.5775 32.247 15.5497 32.3187 15.5249C32.3959 15.5002 32.4648 15.4537 32.5255 15.3856C32.5862 15.3113 32.6358 15.2092 32.6744 15.0792C32.7185 14.943 32.7406 14.748 32.7406 14.4942V10.5011C32.7406 9.74586 32.6579 9.16084 32.4924 8.74606C32.3325 8.33128 32.043 8.12389 31.6239 8.12389C31.4584 8.12389 31.3012 8.15794 31.1523 8.22604C31.0035 8.29414 30.8711 8.39319 30.7553 8.52319C30.6395 8.64701 30.5485 8.79559 30.4823 8.96893C30.4161 9.14227 30.3831 9.33108 30.3831 9.53538V14.457C30.3831 14.7108 30.4051 14.9089 30.4492 15.0513C30.4989 15.1937 30.5595 15.302 30.6312 15.3763C30.7029 15.4444 30.7801 15.494 30.8628 15.5249C30.9511 15.5497 31.031 15.5775 31.1027 15.6085C31.1744 15.6394 31.2323 15.6859 31.2764 15.7478C31.3261 15.8035 31.3509 15.8995 31.3509 16.0357C31.3509 16.7414 31.0365 17.2521 30.4079 17.5679C29.7847 17.8774 28.8858 18.0322 27.7112 18.0322C27.1432 18.0322 26.6358 17.995 26.1891 17.9207C25.7425 17.8464 25.3647 17.7288 25.0559 17.5679C24.7526 17.4007 24.5182 17.1933 24.3528 16.9457C24.1928 16.6919 24.1129 16.3885 24.1129 16.0357C24.1129 15.8995 24.1432 15.8035 24.2039 15.7478C24.2645 15.6859 24.339 15.6394 24.4272 15.6085C24.5154 15.5775 24.612 15.5497 24.7167 15.5249C24.8215 15.5002 24.918 15.4537 25.0063 15.3856C25.0945 15.3113 25.1689 15.2092 25.2296 15.0792C25.2903 14.943 25.3206 14.748 25.3206 14.4942V9.53538C25.3206 9.28775 25.2903 9.09584 25.2296 8.95964C25.1689 8.82344 25.0945 8.7213 25.0063 8.6532C24.918 8.57891 24.8215 8.52938 24.7167 8.50462C24.612 8.47986 24.5154 8.452 24.4272 8.42105C24.339 8.39009 24.2645 8.34676 24.2039 8.29104C24.1432 8.22913 24.1129 8.13008 24.1129 7.99389C24.1129 7.64101 24.1928 7.34076 24.3528 7.09313C24.5127 6.83931 24.7443 6.63192 25.0476 6.47096C25.3564 6.30381 25.7314 6.1831 26.1726 6.10881C26.6138 6.03452 27.1129 5.99737 27.6698 5.99737C27.9235 5.99737 28.1524 6.01285 28.3564 6.0438C28.5605 6.06857 28.7397 6.10571 28.8941 6.15524C29.054 6.19857 29.1919 6.25119 29.3077 6.3131C29.4235 6.36882 29.5228 6.42763 29.6055 6.48954C29.7985 6.63811 29.9336 6.80217 30.0108 6.9817C30.281 6.75264 30.6064 6.54525 30.9869 6.35953C31.3123 6.19857 31.7093 6.05309 32.1781 5.92308C32.6468 5.79308 33.1955 5.72808 33.8242 5.72808C34.4749 5.72808 35.0512 5.83332 35.5531 6.0438C36.0549 6.2481 36.4547 6.52359 36.7525 6.87027Z" fill="black"/>
<path d="M59.5832 6.87027C59.677 6.80217 59.7983 6.70621 59.9472 6.5824C60.1016 6.45239 60.3277 6.32548 60.6255 6.20167C60.9233 6.07166 61.3176 5.96023 61.8084 5.86737C62.2992 5.77451 62.9306 5.72808 63.7027 5.72808C64.2817 5.72808 64.7863 5.80546 65.2164 5.96023C65.6466 6.115 66.0133 6.32548 66.3166 6.59168C66.6254 6.85789 66.8791 7.17361 67.0776 7.53887C67.2762 7.89793 67.4333 8.28794 67.5491 8.70891C67.6649 9.12369 67.7449 9.55705 67.789 10.009C67.8332 10.4609 67.8552 10.9097 67.8552 11.3555V11.4483C67.8497 12.185 67.8442 12.7546 67.8387 13.157C67.8387 13.5532 67.8387 13.8441 67.8387 14.0299C67.8387 14.2156 67.8387 14.327 67.8387 14.3642C67.8387 14.3951 67.8387 14.4106 67.8387 14.4106C67.8387 14.6706 67.869 14.8749 67.9297 15.0235C67.9903 15.1659 68.0648 15.2773 68.153 15.3578C68.2467 15.4321 68.346 15.4847 68.4508 15.5156C68.5611 15.5404 68.6603 15.5713 68.7486 15.6085C68.8423 15.6394 68.9195 15.6859 68.9802 15.7478C69.0409 15.8035 69.0712 15.8995 69.0712 16.0357C69.0712 16.3885 68.9912 16.6919 68.8313 16.9457C68.6769 17.1933 68.448 17.4007 68.1447 17.5679C67.8414 17.7288 67.4664 17.8464 67.0197 17.9207C66.5786 17.995 66.0712 18.0322 65.4977 18.0322C64.9407 18.0322 64.4444 17.995 64.0087 17.9207C63.5786 17.8464 63.2146 17.7288 62.9168 17.5679C62.619 17.4007 62.3929 17.1933 62.2385 16.9457C62.0841 16.6919 62.0069 16.3885 62.0069 16.0357C62.0069 15.8995 62.0262 15.8035 62.0648 15.7478C62.1089 15.6859 62.1613 15.6394 62.222 15.6085C62.2826 15.5775 62.3488 15.5497 62.4205 15.5249C62.4922 15.5002 62.5584 15.4537 62.619 15.3856C62.6797 15.3113 62.7293 15.2092 62.7679 15.0792C62.812 14.943 62.8341 14.748 62.8341 14.4942V10.5011C62.8341 10.1235 62.812 9.7861 62.7679 9.48895C62.7293 9.19179 62.6631 8.94107 62.5694 8.73677C62.4756 8.53248 62.3488 8.37771 62.1889 8.27247C62.0345 8.16104 61.8387 8.10532 61.6016 8.10532C61.2376 8.10532 60.9729 8.23532 60.8075 8.49534C60.6475 8.74916 60.5676 9.08036 60.5676 9.48895V14.3827C60.5676 14.6489 60.5896 14.8563 60.6338 15.0049C60.6779 15.1535 60.733 15.268 60.7992 15.3485C60.8709 15.4228 60.9453 15.4754 61.0225 15.5063C61.1053 15.5373 61.1797 15.5713 61.2459 15.6085C61.3176 15.6394 61.3755 15.6859 61.4196 15.7478C61.4637 15.8035 61.4858 15.8995 61.4858 16.0357C61.4858 16.3885 61.4224 16.6919 61.2955 16.9457C61.1742 17.1933 60.9812 17.4007 60.7165 17.5679C60.4573 17.7288 60.1209 17.8464 59.7073 17.9207C59.2992 17.995 58.8056 18.0322 58.2266 18.0322C57.6696 18.0322 57.1733 17.995 56.7376 17.9207C56.3075 17.8464 55.9435 17.7288 55.6457 17.5679C55.3479 17.4007 55.1218 17.1933 54.9674 16.9457C54.813 16.6919 54.7358 16.3885 54.7358 16.0357C54.7358 15.8995 54.7551 15.8035 54.7937 15.7478C54.8378 15.6859 54.8902 15.6394 54.9509 15.6085C55.0115 15.5775 55.0777 15.5497 55.1494 15.5249C55.2266 15.5002 55.2956 15.4537 55.3562 15.3856C55.4169 15.3113 55.4665 15.2092 55.5051 15.0792C55.5492 14.943 55.5713 14.748 55.5713 14.4942V10.5011C55.5713 9.74586 55.4886 9.16084 55.3231 8.74606C55.1632 8.33128 54.8737 8.12389 54.4546 8.12389C54.2891 8.12389 54.132 8.15794 53.9831 8.22604C53.8342 8.29414 53.7018 8.39319 53.586 8.52319C53.4702 8.64701 53.3792 8.79559 53.313 8.96893C53.2469 9.14227 53.2138 9.33108 53.2138 9.53538V14.457C53.2138 14.7108 53.2358 14.9089 53.2799 15.0513C53.3296 15.1937 53.3902 15.302 53.4619 15.3763C53.5336 15.4444 53.6108 15.494 53.6935 15.5249C53.7818 15.5497 53.8617 15.5775 53.9334 15.6085C54.0051 15.6394 54.063 15.6859 54.1071 15.7478C54.1568 15.8035 54.1816 15.8995 54.1816 16.0357C54.1816 16.7414 53.8673 17.2521 53.2386 17.5679C52.6154 17.8774 51.7165 18.0322 50.5419 18.0322C49.9739 18.0322 49.4666 17.995 49.0199 17.9207C48.5732 17.8464 48.1954 17.7288 47.8866 17.5679C47.5833 17.4007 47.3489 17.1933 47.1835 16.9457C47.0236 16.6919 46.9436 16.3885 46.9436 16.0357C46.9436 15.8995 46.9739 15.8035 47.0346 15.7478C47.0952 15.6859 47.1697 15.6394 47.2579 15.6085C47.3462 15.5775 47.4427 15.5497 47.5475 15.5249C47.6522 15.5002 47.7487 15.4537 47.837 15.3856C47.9252 15.3113 47.9997 15.2092 48.0603 15.0792C48.121 14.943 48.1513 14.748 48.1513 14.4942V9.53538C48.1513 9.28775 48.121 9.09584 48.0603 8.95964C47.9997 8.82344 47.9252 8.7213 47.837 8.6532C47.7487 8.57891 47.6522 8.52938 47.5475 8.50462C47.4427 8.47986 47.3462 8.452 47.2579 8.42105C47.1697 8.39009 47.0952 8.34676 47.0346 8.29104C46.9739 8.22913 46.9436 8.13008 46.9436 7.99389C46.9436 7.64101 47.0236 7.34076 47.1835 7.09313C47.3434 6.83931 47.575 6.63192 47.8783 6.47096C48.1872 6.30381 48.5621 6.1831 49.0033 6.10881C49.4445 6.03452 49.9436 5.99737 50.5006 5.99737C50.7542 5.99737 50.9831 6.01285 51.1871 6.0438C51.3912 6.06857 51.5704 6.10571 51.7248 6.15524C51.8847 6.19857 52.0226 6.25119 52.1384 6.3131C52.2542 6.36882 52.3535 6.42763 52.4362 6.48954C52.6292 6.63811 52.7643 6.80217 52.8415 6.9817C53.1117 6.75264 53.4371 6.54525 53.8176 6.35953C54.143 6.19857 54.54 6.05309 55.0088 5.92308C55.4775 5.79308 56.0262 5.72808 56.6549 5.72808C57.3057 5.72808 57.8819 5.83332 58.3838 6.0438C58.8856 6.2481 59.2854 6.52359 59.5832 6.87027Z" fill="black"/>
<path d="M78.584 9.57252C78.584 9.3187 78.5537 9.1206 78.493 8.97821C78.4323 8.83582 78.3551 8.73058 78.2614 8.66248C78.1731 8.5882 78.0766 8.53867 77.9719 8.51391C77.8671 8.48295 77.7678 8.452 77.6741 8.42105C77.5858 8.39009 77.5114 8.34676 77.4507 8.29104C77.3901 8.22913 77.3597 8.13008 77.3597 7.99389C77.3597 7.28814 77.6851 6.7805 78.3358 6.47096C78.9866 6.15524 79.9268 5.99737 81.1566 5.99737C81.5702 5.99737 81.9176 6.04071 82.1989 6.12738C82.4801 6.21405 82.7117 6.33477 82.8937 6.48954C83.0812 6.64431 83.2246 6.83003 83.3239 7.0467C83.4286 7.26338 83.5031 7.50482 83.5472 7.77102C83.5968 8.03103 83.6244 8.30961 83.6299 8.60677C83.6409 8.90392 83.6465 9.21346 83.6465 9.53538V14.5127C83.6465 14.7604 83.674 14.9523 83.7292 15.0885C83.7898 15.2247 83.8643 15.3299 83.9525 15.4042C84.0463 15.4723 84.1428 15.5187 84.242 15.5435C84.3468 15.5683 84.4433 15.5961 84.5316 15.6271C84.6253 15.658 84.6998 15.7044 84.7549 15.7664C84.8156 15.8221 84.8459 15.918 84.8459 16.0542C84.8459 16.76 84.526 17.2707 83.8863 17.5864C83.2522 17.896 82.3422 18.0507 81.1566 18.0507C80.8643 18.0507 80.6051 18.026 80.379 17.9764C80.1529 17.9269 79.9544 17.8619 79.7834 17.7814C79.618 17.701 79.4746 17.6112 79.3533 17.5121C79.232 17.4069 79.1299 17.2986 79.0472 17.1871C78.8542 16.9395 78.7329 16.6516 78.6833 16.3235C78.3965 16.6888 78.0573 17.0138 77.6658 17.2986C77.5004 17.4224 77.3129 17.5431 77.1033 17.6607C76.8937 17.7722 76.6649 17.8743 76.4167 17.9672C76.1686 18.0538 75.8983 18.125 75.6061 18.1807C75.3193 18.2365 75.0132 18.2643 74.6879 18.2643C74.0813 18.2643 73.5574 18.1807 73.1162 18.0136C72.675 17.8403 72.3 17.6112 71.9912 17.3264C71.6879 17.0416 71.4425 16.7104 71.255 16.3328C71.0675 15.9552 70.9214 15.559 70.8166 15.1442C70.7118 14.7294 70.6401 14.3115 70.6015 13.8906C70.5684 13.4634 70.5519 13.0579 70.5519 12.6741V9.61895C70.5519 9.35894 70.5216 9.15774 70.4609 9.01536C70.4002 8.86678 70.323 8.75535 70.2293 8.68106C70.1355 8.60058 70.0363 8.54796 69.9315 8.52319C69.8267 8.49224 69.7274 8.46129 69.6337 8.43033C69.5399 8.39319 69.4627 8.34676 69.4021 8.29104C69.3414 8.22913 69.3111 8.13008 69.3111 7.99389C69.3111 7.28814 69.6364 6.7805 70.2872 6.47096C70.9379 6.15524 71.8782 5.99737 73.1079 5.99737C73.6539 5.99737 74.0895 6.07166 74.4149 6.22024C74.7403 6.36882 74.9884 6.57311 75.1594 6.83312C75.3303 7.08694 75.4406 7.39029 75.4903 7.74316C75.5399 8.09603 75.5647 8.47676 75.5647 8.88535V13.4727C75.5647 13.8565 75.5895 14.2001 75.6392 14.5034C75.6943 14.8006 75.7825 15.0544 75.9039 15.2649C76.0307 15.4754 76.1961 15.6363 76.4002 15.7478C76.6042 15.853 76.8579 15.9056 77.1612 15.9056C77.3542 15.9056 77.5362 15.8716 77.7072 15.8035C77.8781 15.7354 78.027 15.6394 78.1538 15.5156C78.2807 15.3918 78.3799 15.2463 78.4516 15.0792C78.5288 14.9058 78.5674 14.717 78.5674 14.5127L78.584 9.57252Z" fill="black"/>
<path d="M91.844 14.457C91.844 14.7108 91.8743 14.9089 91.935 15.0513C91.9957 15.1937 92.0701 15.302 92.1583 15.3763C92.2521 15.4444 92.3513 15.494 92.4561 15.5249C92.5609 15.5497 92.6574 15.5775 92.7457 15.6085C92.8394 15.6394 92.9166 15.6859 92.9773 15.7478C93.0379 15.8035 93.0683 15.8995 93.0683 16.0357C93.0683 16.7414 92.7429 17.2521 92.0922 17.5679C91.4414 17.8774 90.5012 18.0322 89.2714 18.0322C88.6758 18.0322 88.1492 17.995 87.6915 17.9207C87.2337 17.8464 86.8477 17.7288 86.5334 17.5679C86.219 17.4007 85.9792 17.1933 85.8137 16.9457C85.6538 16.6919 85.5738 16.3885 85.5738 16.0357C85.5738 15.8995 85.6042 15.8035 85.6648 15.7478C85.7255 15.6859 85.7999 15.6394 85.8882 15.6085C85.9764 15.5775 86.0729 15.5497 86.1777 15.5249C86.2825 15.5002 86.379 15.4537 86.4672 15.3856C86.5554 15.3113 86.6299 15.2092 86.6906 15.0792C86.7512 14.943 86.7815 14.748 86.7815 14.4942V9.53538C86.7815 9.28775 86.7512 9.09584 86.6906 8.95964C86.6299 8.82344 86.5554 8.7213 86.4672 8.6532C86.379 8.57891 86.2825 8.52938 86.1777 8.50462C86.0729 8.47986 85.9764 8.452 85.8882 8.42105C85.7999 8.39009 85.7255 8.34676 85.6648 8.29104C85.6042 8.22913 85.5738 8.13008 85.5738 7.99389C85.5738 7.64101 85.6538 7.34076 85.8137 7.09313C85.9792 6.83931 86.219 6.63192 86.5334 6.47096C86.8477 6.30381 87.2337 6.1831 87.6915 6.10881C88.1492 6.03452 88.6758 5.99737 89.2714 5.99737C89.8118 5.99737 90.242 6.04999 90.5618 6.15524C90.8817 6.25429 91.1299 6.36572 91.3063 6.48954C91.5104 6.63811 91.651 6.80217 91.7282 6.9817C92.015 6.75264 92.3569 6.54525 92.7539 6.35953C93.0958 6.19857 93.5122 6.05309 94.003 5.92308C94.4993 5.79308 95.0784 5.72808 95.7401 5.72808C96.3467 5.72808 96.8679 5.81475 97.3035 5.98809C97.7447 6.15524 98.1169 6.38429 98.4202 6.67526C98.7291 6.96003 98.9772 7.29433 99.1647 7.67816C99.3522 8.05579 99.4956 8.452 99.5949 8.86678C99.6997 9.28156 99.7686 9.70253 99.8017 10.1297C99.8403 10.5507 99.8596 10.9531 99.8596 11.3369V14.4106C99.8596 14.6706 99.8899 14.8749 99.9506 15.0235C100.011 15.1659 100.088 15.2773 100.182 15.3578C100.276 15.4321 100.375 15.4847 100.48 15.5156C100.59 15.5404 100.692 15.5713 100.786 15.6085C100.88 15.6394 100.957 15.6859 101.018 15.7478C101.078 15.8035 101.109 15.8995 101.109 16.0357C101.109 16.7414 100.783 17.2521 100.133 17.5679C99.4873 17.8774 98.5498 18.0322 97.3201 18.0322C96.7245 18.0322 96.1978 17.995 95.7401 17.9207C95.2824 17.8464 94.8964 17.7288 94.582 17.5679C94.2677 17.4007 94.0278 17.1933 93.8624 16.9457C93.7024 16.6919 93.6225 16.3885 93.6225 16.0357C93.6225 15.8995 93.6528 15.8035 93.7135 15.7478C93.7741 15.6859 93.8513 15.6394 93.9451 15.6085C94.0388 15.5775 94.1381 15.5497 94.2429 15.5249C94.3477 15.5002 94.4469 15.4537 94.5407 15.3856C94.6344 15.3113 94.7116 15.2092 94.7723 15.0792C94.833 14.943 94.8633 14.748 94.8633 14.4942V10.529C94.8633 10.1452 94.8357 9.80468 94.7806 9.50752C94.7309 9.20417 94.6427 8.95035 94.5159 8.74606C94.3945 8.53557 94.2319 8.37771 94.0278 8.27247C93.8238 8.16104 93.5701 8.10532 93.2668 8.10532C93.0738 8.10532 92.8918 8.14246 92.7208 8.21675C92.5499 8.28485 92.401 8.3839 92.2742 8.51391C92.1473 8.63772 92.0453 8.7894 91.9681 8.96893C91.8964 9.14227 91.8605 9.33108 91.8605 9.53538L91.844 14.457Z" fill="black"/>
<path d="M103.011 2.80295C103.011 2.49342 103.058 2.22412 103.152 1.99506C103.251 1.75981 103.375 1.55862 103.524 1.39147C103.678 1.21813 103.852 1.07574 104.045 0.964305C104.244 0.846681 104.442 0.75382 104.641 0.685722C104.839 0.617624 105.03 0.571193 105.212 0.546431C105.399 0.515477 105.562 0.5 105.7 0.5C105.848 0.5 106.017 0.515477 106.204 0.546431C106.397 0.571193 106.593 0.617624 106.792 0.685722C106.99 0.75382 107.186 0.846681 107.379 0.964305C107.572 1.07574 107.743 1.21813 107.892 1.39147C108.046 1.55862 108.167 1.75981 108.256 1.99506C108.349 2.22412 108.396 2.49342 108.396 2.80295C108.396 3.1063 108.349 3.3756 108.256 3.61084C108.167 3.84609 108.046 4.04729 107.892 4.21444C107.743 4.38159 107.572 4.52398 107.379 4.6416C107.186 4.75304 106.99 4.8428 106.792 4.9109C106.593 4.979 106.397 5.02852 106.204 5.05948C106.017 5.08424 105.848 5.09662 105.7 5.09662C105.562 5.09662 105.399 5.08424 105.212 5.05948C105.03 5.02852 104.839 4.979 104.641 4.9109C104.442 4.8428 104.244 4.75304 104.045 4.6416C103.852 4.52398 103.678 4.38159 103.524 4.21444C103.375 4.04729 103.251 3.84919 103.152 3.62013C103.058 3.38488 103.011 3.11249 103.011 2.80295ZM108.14 14.4942C108.14 14.7418 108.17 14.9337 108.231 15.0699C108.291 15.2061 108.366 15.3113 108.454 15.3856C108.548 15.4537 108.647 15.5002 108.752 15.5249C108.857 15.5497 108.953 15.5775 109.041 15.6085C109.135 15.6394 109.212 15.6859 109.273 15.7478C109.334 15.8035 109.364 15.8995 109.364 16.0357C109.364 16.7414 109.039 17.2521 108.388 17.5679C107.737 17.8774 106.797 18.0322 105.567 18.0322C104.972 18.0322 104.445 17.995 103.987 17.9207C103.53 17.8464 103.144 17.7288 102.829 17.5679C102.515 17.4007 102.275 17.1933 102.11 16.9457C101.95 16.6919 101.87 16.3885 101.87 16.0357C101.87 15.8995 101.9 15.8035 101.961 15.7478C102.021 15.6859 102.096 15.6394 102.184 15.6085C102.272 15.5775 102.369 15.5497 102.474 15.5249C102.578 15.5002 102.675 15.4537 102.763 15.3856C102.851 15.3113 102.926 15.2092 102.986 15.0792C103.047 14.943 103.077 14.748 103.077 14.4942V9.53538C103.077 9.28775 103.047 9.09584 102.986 8.95964C102.926 8.82344 102.851 8.7213 102.763 8.6532C102.675 8.57891 102.578 8.52938 102.474 8.50462C102.369 8.47986 102.272 8.452 102.184 8.42105C102.096 8.39009 102.021 8.34676 101.961 8.29104C101.9 8.22913 101.87 8.13008 101.87 7.99389C101.87 7.64101 101.95 7.34076 102.11 7.09313C102.275 6.83931 102.515 6.63192 102.829 6.47096C103.144 6.30381 103.53 6.1831 103.987 6.10881C104.445 6.03452 104.972 5.99737 105.567 5.99737C106.163 5.99737 106.632 6.03142 106.973 6.09952C107.315 6.16762 107.572 6.28524 107.743 6.45239C107.919 6.61335 108.03 6.83312 108.074 7.11171C108.118 7.39029 108.14 7.74007 108.14 8.16104V14.4942Z" fill="black"/>
<path d="M115.99 13.4077C115.99 13.612 115.995 13.8101 116.007 14.002C116.018 14.1877 116.051 14.3549 116.106 14.5034C116.161 14.652 116.246 14.7696 116.362 14.8563C116.478 14.943 116.638 14.9863 116.842 14.9863C117.129 14.9863 117.377 14.9461 117.586 14.8656C117.802 14.7789 118.022 14.6675 118.248 14.5313C118.336 14.4756 118.419 14.4477 118.496 14.4477C118.623 14.4477 118.722 14.5096 118.794 14.6334C118.871 14.7573 118.91 14.8966 118.91 15.0513C118.91 15.1566 118.896 15.2432 118.869 15.3113C118.709 15.7694 118.502 16.1811 118.248 16.5464C118 16.9116 117.711 17.2212 117.38 17.475C117.054 17.7288 116.696 17.9238 116.304 18.06C115.913 18.1962 115.494 18.2643 115.047 18.2643C114.429 18.2643 113.9 18.1776 113.459 18.0043C113.018 17.8248 112.645 17.5895 112.342 17.2986C112.039 17.0014 111.796 16.6609 111.614 16.2771C111.432 15.8871 111.291 15.4816 111.192 15.0606C111.098 14.6334 111.035 14.2063 111.002 13.7791C110.974 13.3458 110.961 12.9372 110.961 12.5534V7.85459H110.555C110.351 7.85459 110.191 7.78959 110.075 7.65959C109.96 7.52339 109.902 7.37481 109.902 7.21385C109.902 7.02194 109.979 6.86098 110.133 6.73098C110.779 6.21095 111.369 5.7095 111.904 5.22663C112.439 4.73756 112.899 4.30111 113.285 3.91729C113.737 3.47155 114.143 3.05368 114.501 2.66366C114.644 2.5027 114.791 2.38508 114.939 2.31079C115.088 2.23031 115.232 2.19007 115.37 2.19007C115.541 2.19007 115.684 2.25507 115.8 2.38508C115.916 2.51508 115.973 2.71628 115.973 2.98868V5.99737H117.992C118.058 5.99737 118.135 6.00356 118.223 6.01595C118.317 6.02214 118.405 6.05309 118.488 6.10881C118.571 6.16452 118.64 6.25429 118.695 6.3781C118.756 6.49573 118.786 6.66597 118.786 6.88884C118.786 7.13028 118.758 7.316 118.703 7.446C118.648 7.57601 118.579 7.67197 118.496 7.73387C118.414 7.79578 118.325 7.83293 118.232 7.84531C118.143 7.8515 118.063 7.85459 117.992 7.85459H115.973L115.99 13.4077Z" fill="black"/>
<path d="M120.647 2.80295C120.647 2.49342 120.694 2.22412 120.788 1.99506C120.887 1.75981 121.011 1.55862 121.16 1.39147C121.314 1.21813 121.488 1.07574 121.681 0.964305C121.88 0.846681 122.078 0.75382 122.277 0.685722C122.475 0.617624 122.665 0.571193 122.847 0.546431C123.035 0.515477 123.198 0.5 123.336 0.5C123.484 0.5 123.653 0.515477 123.84 0.546431C124.033 0.571193 124.229 0.617624 124.427 0.685722C124.626 0.75382 124.822 0.846681 125.015 0.964305C125.208 1.07574 125.379 1.21813 125.528 1.39147C125.682 1.55862 125.803 1.75981 125.892 1.99506C125.985 2.22412 126.032 2.49342 126.032 2.80295C126.032 3.1063 125.985 3.3756 125.892 3.61084C125.803 3.84609 125.682 4.04729 125.528 4.21444C125.379 4.38159 125.208 4.52398 125.015 4.6416C124.822 4.75304 124.626 4.8428 124.427 4.9109C124.229 4.979 124.033 5.02852 123.84 5.05948C123.653 5.08424 123.484 5.09662 123.336 5.09662C123.198 5.09662 123.035 5.08424 122.847 5.05948C122.665 5.02852 122.475 4.979 122.277 4.9109C122.078 4.8428 121.88 4.75304 121.681 4.6416C121.488 4.52398 121.314 4.38159 121.16 4.21444C121.011 4.04729 120.887 3.84919 120.788 3.62013C120.694 3.38488 120.647 3.11249 120.647 2.80295ZM125.776 14.4942C125.776 14.7418 125.806 14.9337 125.867 15.0699C125.927 15.2061 126.002 15.3113 126.09 15.3856C126.184 15.4537 126.283 15.5002 126.388 15.5249C126.493 15.5497 126.589 15.5775 126.677 15.6085C126.771 15.6394 126.848 15.6859 126.909 15.7478C126.97 15.8035 127 15.8995 127 16.0357C127 16.7414 126.675 17.2521 126.024 17.5679C125.373 17.8774 124.433 18.0322 123.203 18.0322C122.608 18.0322 122.081 17.995 121.623 17.9207C121.165 17.8464 120.779 17.7288 120.465 17.5679C120.151 17.4007 119.911 17.1933 119.745 16.9457C119.586 16.6919 119.506 16.3885 119.506 16.0357C119.506 15.8995 119.536 15.8035 119.597 15.7478C119.657 15.6859 119.732 15.6394 119.82 15.6085C119.908 15.5775 120.005 15.5497 120.109 15.5249C120.214 15.5002 120.311 15.4537 120.399 15.3856C120.487 15.3113 120.562 15.2092 120.622 15.0792C120.683 14.943 120.713 14.748 120.713 14.4942V9.53538C120.713 9.28775 120.683 9.09584 120.622 8.95964C120.562 8.82344 120.487 8.7213 120.399 8.6532C120.311 8.57891 120.214 8.52938 120.109 8.50462C120.005 8.47986 119.908 8.452 119.82 8.42105C119.732 8.39009 119.657 8.34676 119.597 8.29104C119.536 8.22913 119.506 8.13008 119.506 7.99389C119.506 7.64101 119.586 7.34076 119.745 7.09313C119.911 6.83931 120.151 6.63192 120.465 6.47096C120.779 6.30381 121.165 6.1831 121.623 6.10881C122.081 6.03452 122.608 5.99737 123.203 5.99737C123.799 5.99737 124.267 6.03142 124.609 6.09952C124.951 6.16762 125.208 6.28524 125.379 6.45239C125.555 6.61335 125.665 6.83312 125.71 7.11171C125.754 7.39029 125.776 7.74007 125.776 8.16104V14.4942Z" fill="black"/>
<path d="M17.3509 18.6073C21.1234 18.6073 24.182 15.6032 24.182 11.8973C24.182 8.19153 21.1234 5.18739 17.3509 5.18739C13.5785 5.18739 10.5198 8.19153 10.5198 11.8973C10.5198 13.5844 11.1543 15.1277 12.202 16.3067C12.1192 17.2806 11.8459 18.3485 11.5437 19.1499C11.4762 19.3281 11.6068 19.5275 11.7768 19.4969C13.7031 19.1422 14.8482 18.5977 15.346 18.314C16 18.5098 16.6741 18.6084 17.3509 18.6073Z" fill="#0099FF"/>
</g>
</svg>
