<svg width="240" height="32" viewBox="0 0 240 32" fill="none" xmlns="http://www.w3.org/2000/svg">
<g id="Vector">
<path d="M10.6924 8.80518C12.2452 8.80518 13.5687 8.97722 14.6629 9.32129C15.7676 9.66537 16.6691 10.1293 17.3673 10.7132C18.0759 11.2971 18.5918 11.9801 18.9149 12.762C19.2379 13.544 19.3995 14.3729 19.3995 15.2488C19.3995 15.6137 19.3421 15.9369 19.2275 16.2184C19.1129 16.4999 18.9566 16.7397 18.7585 16.9379C18.571 17.136 18.3417 17.2871 18.0707 17.3914C17.7998 17.4957 17.508 17.5478 17.1953 17.5478C16.9244 17.5478 16.6482 17.5009 16.3668 17.407C16.0855 17.3132 15.8197 17.162 15.5696 16.9535C15.3195 16.745 15.0954 16.4739 14.8974 16.1402C14.6994 15.8066 14.5483 15.3999 14.4441 14.9203C14.3607 14.5763 14.2357 14.2739 14.0689 14.0132C13.9022 13.7526 13.7094 13.5336 13.4905 13.3563C13.2821 13.1687 13.0476 13.0331 12.7871 12.9497C12.537 12.8559 12.2868 12.809 12.0367 12.809C11.5886 12.809 11.1978 12.9028 10.8643 13.0905C10.5413 13.2782 10.2703 13.5545 10.0515 13.9194C9.83261 14.2739 9.67107 14.7118 9.56686 15.2331C9.46265 15.744 9.41054 16.3227 9.41054 16.9691C9.41054 19.4715 9.78571 21.3274 10.5361 22.5369C11.2968 23.7359 12.5109 24.3355 14.1783 24.3355C14.6577 24.3355 15.1475 24.2729 15.6478 24.1478C16.148 24.0122 16.6117 23.8663 17.039 23.7099C17.4663 23.5535 17.8363 23.4127 18.1489 23.2876C18.4615 23.1521 18.6752 23.0843 18.7898 23.0843C19.0295 23.0843 19.2171 23.1885 19.3526 23.3971C19.488 23.5952 19.5558 23.8246 19.5558 24.0852C19.5558 24.1686 19.5506 24.2468 19.5402 24.3198C19.5402 24.3928 19.5245 24.4658 19.4933 24.5388C19.191 25.3103 18.7638 26.0246 18.2114 26.6814C17.6591 27.3279 16.9973 27.8961 16.2261 28.3862C15.4654 28.8658 14.6004 29.2411 13.6312 29.5122C12.662 29.7833 11.6095 29.9188 10.4735 29.9188C9.30632 29.9188 8.23813 29.7833 7.26894 29.5122C6.29975 29.2307 5.42435 28.8449 4.64274 28.3549C3.87156 27.8544 3.19416 27.2705 2.61056 26.6032C2.03739 25.9359 1.55279 25.2113 1.15678 24.4293C0.771185 23.6369 0.479385 22.8132 0.281378 21.9582C0.0937927 21.0928 0 20.2222 0 19.3464C0 18.4601 0.0990035 17.5843 0.29701 16.7189C0.495017 15.8431 0.792028 15.0142 1.18804 14.2322C1.58406 13.4502 2.07907 12.7308 2.67309 12.0739C3.26711 11.4066 3.96014 10.8331 4.75217 10.3535C5.54419 9.86347 6.43522 9.4829 7.42526 9.21181C8.41529 8.94073 9.50433 8.80518 10.6924 8.80518Z" fill="black"/>
<path d="M69.4535 10.7289C69.6307 10.6142 69.86 10.4526 70.1413 10.244C70.4331 10.0251 70.8604 9.81134 71.4232 9.60281C71.9859 9.38385 72.7311 9.19618 73.6586 9.03978C74.5861 8.88338 75.7793 8.80518 77.2383 8.80518C78.3326 8.80518 79.2861 8.93551 80.099 9.19618C80.9119 9.45684 81.6049 9.81134 82.1781 10.2597C82.7617 10.708 83.2411 11.2398 83.6162 11.8549C83.9914 12.4597 84.2884 13.1165 84.5073 13.8255C84.7261 14.5241 84.8772 15.254 84.9606 16.0151C85.044 16.7762 85.0856 17.5322 85.0856 18.2829V18.4393C85.0752 19.68 85.0648 20.6393 85.0544 21.317C85.0544 21.9843 85.0544 22.4743 85.0544 22.7871C85.0544 23.0999 85.0544 23.2876 85.0544 23.3502C85.0544 23.4023 85.0544 23.4284 85.0544 23.4284C85.0544 23.8663 85.1117 24.2103 85.2263 24.4606C85.341 24.7004 85.4817 24.8881 85.6484 25.0236C85.8256 25.1487 86.0132 25.2374 86.2112 25.2895C86.4196 25.3312 86.6072 25.3833 86.7739 25.4459C86.9511 25.498 87.097 25.5762 87.2116 25.6805C87.3263 25.7743 87.3836 25.9359 87.3836 26.1653C87.3836 26.7596 87.2325 27.2705 86.9302 27.698C86.6384 28.1151 86.2059 28.4644 85.6328 28.7459C85.0596 29.017 84.3509 29.2151 83.5068 29.3402C82.6731 29.4653 81.7143 29.5279 80.6305 29.5279C79.5779 29.5279 78.64 29.4653 77.8167 29.3402C77.0038 29.2151 76.316 29.017 75.7533 28.7459C75.1905 28.4644 74.7632 28.1151 74.4714 27.698C74.1796 27.2705 74.0337 26.7596 74.0337 26.1653C74.0337 25.9359 74.0702 25.7743 74.1432 25.6805C74.2265 25.5762 74.3255 25.498 74.4402 25.4459C74.5548 25.3937 74.6799 25.3468 74.8153 25.3051C74.9508 25.2634 75.0759 25.1852 75.1905 25.0705C75.3052 24.9454 75.3989 24.7734 75.4719 24.5544C75.5553 24.325 75.5969 23.9966 75.5969 23.5691V16.844C75.5969 16.208 75.5553 15.6398 75.4719 15.1393C75.3989 14.6388 75.2739 14.2165 75.0967 13.8725C74.9196 13.5284 74.6799 13.2677 74.3776 13.0905C74.0858 12.9028 73.7159 12.809 73.2678 12.809C72.5799 12.809 72.0797 13.0279 71.7671 13.4658C71.4649 13.8933 71.3137 14.4511 71.3137 15.1393V23.3814C71.3137 23.8298 71.3554 24.1791 71.4388 24.4293C71.5222 24.6795 71.6264 24.8724 71.7514 25.008C71.8869 25.1331 72.0276 25.2217 72.1735 25.2738C72.3298 25.326 72.4705 25.3833 72.5956 25.4459C72.7311 25.498 72.8405 25.5762 72.9239 25.6805C73.0072 25.7743 73.0489 25.9359 73.0489 26.1653C73.0489 26.7596 72.9291 27.2705 72.6894 27.698C72.4601 28.1151 72.0954 28.4644 71.5951 28.7459C71.1053 29.017 70.4696 29.2151 69.688 29.3402C68.9168 29.4653 67.9841 29.5279 66.8899 29.5279C65.8373 29.5279 64.8994 29.4653 64.0761 29.3402C63.2632 29.2151 62.5754 29.017 62.0126 28.7459C61.4499 28.4644 61.0226 28.1151 60.7308 27.698C60.439 27.2705 60.2931 26.7596 60.2931 26.1653C60.2931 25.9359 60.3296 25.7743 60.4025 25.6805C60.4859 25.5762 60.5849 25.498 60.6995 25.4459C60.8142 25.3937 60.9392 25.3468 61.0747 25.3051C61.2206 25.2634 61.3509 25.1852 61.4655 25.0705C61.5801 24.9454 61.6739 24.7734 61.7469 24.5544C61.8303 24.325 61.8719 23.9966 61.8719 23.5691V16.844C61.8719 15.572 61.7156 14.5867 61.403 13.8881C61.1008 13.1895 60.5536 12.8402 59.7616 12.8402C59.449 12.8402 59.152 12.8976 58.8706 13.0123C58.5892 13.127 58.3391 13.2938 58.1202 13.5127C57.9014 13.7213 57.7294 13.9715 57.6044 14.2635C57.4793 14.5554 57.4168 14.8734 57.4168 15.2175V23.5066C57.4168 23.934 57.4585 24.2677 57.5418 24.5075C57.6356 24.7473 57.7503 24.9298 57.8858 25.0549C58.0212 25.1696 58.1671 25.253 58.3235 25.3051C58.4902 25.3468 58.6413 25.3937 58.7768 25.4459C58.9123 25.498 59.0217 25.5762 59.1051 25.6805C59.1989 25.7743 59.2457 25.9359 59.2457 26.1653C59.2457 27.3539 58.6517 28.2141 57.4637 28.7459C56.2861 29.2672 54.5874 29.5279 52.3676 29.5279C51.2942 29.5279 50.3354 29.4653 49.4913 29.3402C48.6472 29.2151 47.9333 29.017 47.3497 28.7459C46.7765 28.4644 46.3336 28.1151 46.021 27.698C45.7188 27.2705 45.5676 26.7596 45.5676 26.1653C45.5676 25.9359 45.625 25.7743 45.7396 25.6805C45.8542 25.5762 45.9949 25.498 46.1617 25.4459C46.3284 25.3937 46.5108 25.3468 46.7088 25.3051C46.9068 25.2634 47.0892 25.1852 47.2559 25.0705C47.4227 24.9454 47.5633 24.7734 47.678 24.5544C47.7926 24.325 47.8499 23.9966 47.8499 23.5691V15.2175C47.8499 14.8004 47.7926 14.4772 47.678 14.2478C47.5633 14.0184 47.4227 13.8464 47.2559 13.7317C47.0892 13.6066 46.9068 13.5232 46.7088 13.4815C46.5108 13.4398 46.3284 13.3928 46.1617 13.3407C45.9949 13.2886 45.8542 13.2156 45.7396 13.1218C45.625 13.0175 45.5676 12.8507 45.5676 12.6213C45.5676 12.027 45.7188 11.5213 46.021 11.1042C46.3232 10.6767 46.7609 10.3275 47.3341 10.0564C47.9177 9.77485 48.6263 9.57153 49.46 9.44641C50.2938 9.32129 51.2369 9.25873 52.2895 9.25873C52.7688 9.25873 53.2013 9.2848 53.5869 9.33693C53.9725 9.37864 54.3112 9.4412 54.603 9.52461C54.9052 9.5976 55.1658 9.68622 55.3846 9.79049C55.6035 9.88433 55.791 9.98338 55.9474 10.0876C56.3121 10.3379 56.5674 10.6142 56.7133 10.9165C57.224 10.5308 57.8389 10.1815 58.5579 9.86868C59.1728 9.5976 59.9231 9.35257 60.809 9.13362C61.6948 8.91466 62.7317 8.80518 63.9198 8.80518C65.1495 8.80518 66.2385 8.98243 67.1869 9.33693C68.1352 9.68101 68.8908 10.145 69.4535 10.7289Z" fill="black"/>
<path d="M112.598 10.7289C112.775 10.6142 113.005 10.4526 113.286 10.244C113.578 10.0251 114.005 9.81134 114.568 9.60281C115.131 9.38385 115.876 9.19618 116.803 9.03978C117.731 8.88338 118.924 8.80518 120.383 8.80518C121.477 8.80518 122.431 8.93551 123.244 9.19618C124.057 9.45684 124.75 9.81134 125.323 10.2597C125.906 10.708 126.386 11.2398 126.761 11.8549C127.136 12.4597 127.433 13.1165 127.652 13.8255C127.871 14.5241 128.022 15.254 128.105 16.0151C128.189 16.7762 128.23 17.5322 128.23 18.2829V18.4393C128.22 19.68 128.209 20.6393 128.199 21.317C128.199 21.9843 128.199 22.4743 128.199 22.7871C128.199 23.0999 128.199 23.2876 128.199 23.3502C128.199 23.4023 128.199 23.4284 128.199 23.4284C128.199 23.8663 128.256 24.2103 128.371 24.4606C128.486 24.7004 128.626 24.8881 128.793 25.0236C128.97 25.1487 129.158 25.2374 129.356 25.2895C129.564 25.3312 129.752 25.3833 129.919 25.4459C130.096 25.498 130.242 25.5762 130.356 25.6805C130.471 25.7743 130.528 25.9359 130.528 26.1653C130.528 26.7596 130.377 27.2705 130.075 27.698C129.783 28.1151 129.351 28.4644 128.777 28.7459C128.204 29.017 127.496 29.2151 126.651 29.3402C125.818 29.4653 124.859 29.5279 123.775 29.5279C122.723 29.5279 121.785 29.4653 120.961 29.3402C120.148 29.2151 119.461 29.017 118.898 28.7459C118.335 28.4644 117.908 28.1151 117.616 27.698C117.324 27.2705 117.178 26.7596 117.178 26.1653C117.178 25.9359 117.215 25.7743 117.288 25.6805C117.371 25.5762 117.47 25.498 117.585 25.4459C117.699 25.3937 117.825 25.3468 117.96 25.3051C118.095 25.2634 118.221 25.1852 118.335 25.0705C118.45 24.9454 118.544 24.7734 118.617 24.5544C118.7 24.325 118.742 23.9966 118.742 23.5691V16.844C118.742 16.208 118.7 15.6398 118.617 15.1393C118.544 14.6388 118.419 14.2165 118.241 13.8725C118.064 13.5284 117.825 13.2677 117.522 13.0905C117.231 12.9028 116.861 12.809 116.412 12.809C115.725 12.809 115.224 13.0279 114.912 13.4658C114.61 13.8933 114.458 14.4511 114.458 15.1393V23.3814C114.458 23.8298 114.5 24.1791 114.583 24.4293C114.667 24.6795 114.771 24.8724 114.896 25.008C115.032 25.1331 115.172 25.2217 115.318 25.2738C115.474 25.326 115.615 25.3833 115.74 25.4459C115.876 25.498 115.985 25.5762 116.069 25.6805C116.152 25.7743 116.194 25.9359 116.194 26.1653C116.194 26.7596 116.074 27.2705 115.834 27.698C115.605 28.1151 115.24 28.4644 114.74 28.7459C114.25 29.017 113.614 29.2151 112.833 29.3402C112.061 29.4653 111.129 29.5279 110.035 29.5279C108.982 29.5279 108.044 29.4653 107.221 29.3402C106.408 29.2151 105.72 29.017 105.157 28.7459C104.595 28.4644 104.167 28.1151 103.875 27.698C103.584 27.2705 103.438 26.7596 103.438 26.1653C103.438 25.9359 103.474 25.7743 103.547 25.6805C103.631 25.5762 103.73 25.498 103.844 25.4459C103.959 25.3937 104.084 25.3468 104.219 25.3051C104.365 25.2634 104.496 25.1852 104.61 25.0705C104.725 24.9454 104.819 24.7734 104.892 24.5544C104.975 24.325 105.017 23.9966 105.017 23.5691V16.844C105.017 15.572 104.86 14.5867 104.548 13.8881C104.245 13.1895 103.698 12.8402 102.906 12.8402C102.594 12.8402 102.297 12.8976 102.015 13.0123C101.734 13.127 101.484 13.2938 101.265 13.5127C101.046 13.7213 100.874 13.9715 100.749 14.2635C100.624 14.5554 100.561 14.8734 100.561 15.2175V23.5066C100.561 23.934 100.603 24.2677 100.687 24.5075C100.78 24.7473 100.895 24.9298 101.03 25.0549C101.166 25.1696 101.312 25.253 101.468 25.3051C101.635 25.3468 101.786 25.3937 101.921 25.4459C102.057 25.498 102.166 25.5762 102.25 25.6805C102.344 25.7743 102.39 25.9359 102.39 26.1653C102.39 27.3539 101.796 28.2141 100.608 28.7459C99.4307 29.2672 97.732 29.5279 95.5123 29.5279C94.4389 29.5279 93.4801 29.4653 92.636 29.3402C91.7918 29.2151 91.078 29.017 90.4944 28.7459C89.9212 28.4644 89.4783 28.1151 89.1656 27.698C88.8634 27.2705 88.7123 26.7596 88.7123 26.1653C88.7123 25.9359 88.7696 25.7743 88.8843 25.6805C88.9989 25.5762 89.1396 25.498 89.3063 25.4459C89.4731 25.3937 89.6554 25.3468 89.8534 25.3051C90.0515 25.2634 90.2338 25.1852 90.4006 25.0705C90.5673 24.9454 90.708 24.7734 90.8226 24.5544C90.9373 24.325 90.9946 23.9966 90.9946 23.5691V15.2175C90.9946 14.8004 90.9373 14.4772 90.8226 14.2478C90.708 14.0184 90.5673 13.8464 90.4006 13.7317C90.2338 13.6066 90.0515 13.5232 89.8534 13.4815C89.6554 13.4398 89.4731 13.3928 89.3063 13.3407C89.1396 13.2886 88.9989 13.2156 88.8843 13.1218C88.7696 13.0175 88.7123 12.8507 88.7123 12.6213C88.7123 12.027 88.8634 11.5213 89.1656 11.1042C89.4678 10.6767 89.9056 10.3275 90.4787 10.0564C91.0623 9.77485 91.771 9.57153 92.6047 9.44641C93.4384 9.32129 94.3816 9.25873 95.4341 9.25873C95.9135 9.25873 96.346 9.2848 96.7316 9.33693C97.1172 9.37864 97.4559 9.4412 97.7477 9.52461C98.0499 9.5976 98.3104 9.68622 98.5293 9.79049C98.7481 9.88433 98.9357 9.98338 99.092 10.0876C99.4568 10.3379 99.7121 10.6142 99.858 10.9165C100.369 10.5308 100.984 10.1815 101.703 9.86868C102.317 9.5976 103.068 9.35257 103.954 9.13362C104.839 8.91466 105.876 8.80518 107.064 8.80518C108.294 8.80518 109.383 8.98243 110.332 9.33693C111.28 9.68101 112.035 10.145 112.598 10.7289Z" fill="black"/>
<path d="M148.505 15.28C148.505 14.8526 148.448 14.5189 148.333 14.2791C148.219 14.0393 148.073 13.862 147.896 13.7473C147.729 13.6222 147.546 13.5388 147.348 13.4971C147.15 13.445 146.963 13.3928 146.786 13.3407C146.619 13.2886 146.478 13.2156 146.364 13.1218C146.249 13.0175 146.192 12.8507 146.192 12.6213C146.192 11.4327 146.806 10.5777 148.036 10.0564C149.266 9.52461 151.043 9.25873 153.367 9.25873C154.148 9.25873 154.805 9.33172 155.336 9.47769C155.868 9.62366 156.306 9.82698 156.65 10.0876C157.004 10.3483 157.275 10.6611 157.462 11.026C157.66 11.391 157.801 11.7976 157.884 12.2459C157.978 12.6838 158.03 13.153 158.041 13.6535C158.062 14.154 158.072 14.6753 158.072 15.2175V23.6004C158.072 24.0175 158.124 24.3407 158.228 24.5701C158.343 24.7994 158.484 24.9767 158.65 25.1018C158.828 25.2165 159.01 25.2947 159.198 25.3364C159.396 25.3781 159.578 25.425 159.745 25.4772C159.922 25.5293 160.063 25.6075 160.167 25.7118C160.281 25.8056 160.339 25.9672 160.339 26.1966C160.339 27.3852 159.734 28.2454 158.525 28.7771C157.327 29.2985 155.607 29.5591 153.367 29.5591C152.814 29.5591 152.325 29.5174 151.897 29.434C151.47 29.3506 151.095 29.2411 150.772 29.1056C150.459 28.97 150.188 28.8189 149.959 28.652C149.73 28.4748 149.537 28.2923 149.381 28.1046C149.016 27.6876 148.787 27.2027 148.693 26.6501C148.151 27.2653 147.51 27.8127 146.77 28.2923C146.457 28.5008 146.103 28.7042 145.707 28.9023C145.311 29.0899 144.879 29.262 144.41 29.4184C143.941 29.5643 143.43 29.6843 142.878 29.7781C142.336 29.8719 141.757 29.9188 141.142 29.9188C139.996 29.9188 139.006 29.7781 138.172 29.4966C137.339 29.2046 136.63 28.8189 136.046 28.3392C135.473 27.8596 135.009 27.3018 134.655 26.6658C134.301 26.0298 134.025 25.3625 133.827 24.6639C133.629 23.9653 133.493 23.2615 133.42 22.5525C133.358 21.8331 133.326 21.1502 133.326 20.5037V15.3582C133.326 14.9203 133.269 14.5815 133.154 14.3417C133.04 14.0914 132.894 13.9037 132.717 13.7786C132.54 13.6431 132.352 13.5545 132.154 13.5127C131.956 13.4606 131.768 13.4085 131.591 13.3563C131.414 13.2938 131.268 13.2156 131.154 13.1218C131.039 13.0175 130.982 12.8507 130.982 12.6213C130.982 11.4327 131.596 10.5777 132.826 10.0564C134.056 9.52461 135.833 9.25873 138.157 9.25873C139.188 9.25873 140.012 9.38385 140.627 9.63409C141.241 9.88433 141.71 10.2284 142.033 10.6663C142.357 11.0938 142.565 11.6047 142.659 12.199C142.753 12.7933 142.799 13.4345 142.799 14.1227V21.8487C142.799 22.4952 142.846 23.0739 142.94 23.5847C143.044 24.0852 143.211 24.5127 143.44 24.8672C143.68 25.2217 143.993 25.4928 144.378 25.6805C144.764 25.8577 145.243 25.9464 145.816 25.9464C146.181 25.9464 146.525 25.889 146.848 25.7743C147.171 25.6596 147.453 25.498 147.692 25.2895C147.932 25.081 148.12 24.8359 148.255 24.5544C148.401 24.2625 148.474 23.9445 148.474 23.6004L148.505 15.28Z" fill="black"/>
<path d="M173.563 23.5066C173.563 23.934 173.621 24.2677 173.735 24.5075C173.85 24.7473 173.991 24.9298 174.157 25.0549C174.335 25.1696 174.522 25.253 174.72 25.3051C174.918 25.3468 175.101 25.3937 175.267 25.4459C175.445 25.498 175.59 25.5762 175.705 25.6805C175.82 25.7743 175.877 25.9359 175.877 26.1653C175.877 27.3539 175.262 28.2141 174.032 28.7459C172.803 29.2672 171.026 29.5279 168.702 29.5279C167.576 29.5279 166.581 29.4653 165.716 29.3402C164.851 29.2151 164.122 29.017 163.528 28.7459C162.934 28.4644 162.48 28.1151 162.168 27.698C161.865 27.2705 161.714 26.7596 161.714 26.1653C161.714 25.9359 161.772 25.7743 161.886 25.6805C162.001 25.5762 162.142 25.498 162.308 25.4459C162.475 25.3937 162.657 25.3468 162.855 25.3051C163.053 25.2634 163.236 25.1852 163.403 25.0705C163.569 24.9454 163.71 24.7734 163.825 24.5544C163.939 24.325 163.997 23.9966 163.997 23.5691V15.2175C163.997 14.8004 163.939 14.4772 163.825 14.2478C163.71 14.0184 163.569 13.8464 163.403 13.7317C163.236 13.6066 163.053 13.5232 162.855 13.4815C162.657 13.4398 162.475 13.3928 162.308 13.3407C162.142 13.2886 162.001 13.2156 161.886 13.1218C161.772 13.0175 161.714 12.8507 161.714 12.6213C161.714 12.027 161.865 11.5213 162.168 11.1042C162.48 10.6767 162.934 10.3275 163.528 10.0564C164.122 9.77485 164.851 9.57153 165.716 9.44641C166.581 9.32129 167.576 9.25873 168.702 9.25873C169.723 9.25873 170.536 9.34736 171.14 9.52461C171.745 9.69143 172.214 9.87911 172.547 10.0876C172.933 10.3379 173.199 10.6142 173.345 10.9165C173.887 10.5308 174.533 10.1815 175.283 9.86868C175.929 9.5976 176.716 9.35257 177.643 9.13362C178.581 8.91466 179.676 8.80518 180.926 8.80518C182.073 8.80518 183.057 8.95115 183.881 9.24309C184.714 9.52461 185.418 9.91039 185.991 10.4004C186.575 10.8801 187.044 11.4431 187.398 12.0895C187.752 12.7255 188.023 13.3928 188.211 14.0914C188.409 14.79 188.539 15.499 188.602 16.2184C188.675 16.9274 188.711 17.6052 188.711 18.2516V23.4284C188.711 23.8663 188.768 24.2103 188.883 24.4606C188.998 24.7004 189.143 24.8881 189.321 25.0236C189.498 25.1487 189.685 25.2374 189.883 25.2895C190.092 25.3312 190.285 25.3833 190.462 25.4459C190.639 25.498 190.785 25.5762 190.899 25.6805C191.014 25.7743 191.071 25.9359 191.071 26.1653C191.071 27.3539 190.457 28.2141 189.227 28.7459C188.008 29.2672 186.236 29.5279 183.912 29.5279C182.786 29.5279 181.791 29.4653 180.926 29.3402C180.061 29.2151 179.332 29.017 178.738 28.7459C178.144 28.4644 177.69 28.1151 177.378 27.698C177.075 27.2705 176.924 26.7596 176.924 26.1653C176.924 25.9359 176.982 25.7743 177.096 25.6805C177.211 25.5762 177.357 25.498 177.534 25.4459C177.711 25.3937 177.899 25.3468 178.097 25.3051C178.295 25.2634 178.482 25.1852 178.66 25.0705C178.837 24.9454 178.983 24.7734 179.097 24.5544C179.212 24.325 179.269 23.9966 179.269 23.5691V16.8909C179.269 16.2445 179.217 15.671 179.113 15.1706C179.019 14.6597 178.852 14.2322 178.613 13.8881C178.383 13.5336 178.076 13.2677 177.69 13.0905C177.305 12.9028 176.825 12.809 176.252 12.809C175.887 12.809 175.544 12.8715 175.22 12.9966C174.897 13.1113 174.616 13.2782 174.376 13.4971C174.137 13.7056 173.944 13.9611 173.798 14.2635C173.662 14.5554 173.595 14.8734 173.595 15.2175L173.563 23.5066Z" fill="black"/>
<path d="M194.667 3.87866C194.667 3.35733 194.755 2.90378 194.933 2.518C195.12 2.12179 195.355 1.78293 195.636 1.50142C195.928 1.20947 196.256 0.969665 196.621 0.781988C196.996 0.583884 197.371 0.427487 197.746 0.312795C198.122 0.198104 198.481 0.119905 198.825 0.0781988C199.179 0.0260663 199.487 0 199.747 0C200.029 0 200.347 0.0260663 200.701 0.0781988C201.066 0.119905 201.436 0.198104 201.811 0.312795C202.186 0.427487 202.556 0.583884 202.921 0.781988C203.285 0.969665 203.608 1.20947 203.89 1.50142C204.182 1.78293 204.411 2.12179 204.578 2.518C204.755 2.90378 204.843 3.35733 204.843 3.87866C204.843 4.38956 204.755 4.84311 204.578 5.23932C204.411 5.63552 204.182 5.97439 203.89 6.2559C203.608 6.53742 203.285 6.77723 202.921 6.97533C202.556 7.16301 202.186 7.31419 201.811 7.42888C201.436 7.54357 201.066 7.62699 200.701 7.67912C200.347 7.72083 200.029 7.74168 199.747 7.74168C199.487 7.74168 199.179 7.72083 198.825 7.67912C198.481 7.62699 198.122 7.54357 197.746 7.42888C197.371 7.31419 196.996 7.16301 196.621 6.97533C196.256 6.77723 195.928 6.53742 195.636 6.2559C195.355 5.97439 195.12 5.64074 194.933 5.25496C194.755 4.85875 194.667 4.39998 194.667 3.87866ZM204.359 23.5691C204.359 23.9862 204.416 24.3094 204.531 24.5388C204.645 24.7682 204.786 24.9454 204.953 25.0705C205.13 25.1852 205.318 25.2634 205.516 25.3051C205.714 25.3468 205.896 25.3937 206.063 25.4459C206.24 25.498 206.386 25.5762 206.5 25.6805C206.615 25.7743 206.672 25.9359 206.672 26.1653C206.672 27.3539 206.057 28.2141 204.828 28.7459C203.598 29.2672 201.821 29.5279 199.497 29.5279C198.372 29.5279 197.376 29.4653 196.511 29.3402C195.646 29.2151 194.917 29.017 194.323 28.7459C193.729 28.4644 193.276 28.1151 192.963 27.698C192.661 27.2705 192.51 26.7596 192.51 26.1653C192.51 25.9359 192.567 25.7743 192.682 25.6805C192.796 25.5762 192.937 25.498 193.104 25.4459C193.27 25.3937 193.453 25.3468 193.651 25.3051C193.849 25.2634 194.031 25.1852 194.198 25.0705C194.365 24.9454 194.505 24.7734 194.62 24.5544C194.735 24.325 194.792 23.9966 194.792 23.5691V15.2175C194.792 14.8004 194.735 14.4772 194.62 14.2478C194.505 14.0184 194.365 13.8464 194.198 13.7317C194.031 13.6066 193.849 13.5232 193.651 13.4815C193.453 13.4398 193.27 13.3928 193.104 13.3407C192.937 13.2886 192.796 13.2156 192.682 13.1218C192.567 13.0175 192.51 12.8507 192.51 12.6213C192.51 12.027 192.661 11.5213 192.963 11.1042C193.276 10.6767 193.729 10.3275 194.323 10.0564C194.917 9.77485 195.646 9.57153 196.511 9.44641C197.376 9.32129 198.372 9.25873 199.497 9.25873C200.623 9.25873 201.508 9.31608 202.155 9.43077C202.801 9.54546 203.285 9.74357 203.608 10.0251C203.942 10.2962 204.15 10.6663 204.234 11.1355C204.317 11.6047 204.359 12.1938 204.359 12.9028V23.5691Z" fill="black"/>
<path d="M219.194 21.7393C219.194 22.0833 219.204 22.417 219.225 22.7402C219.246 23.053 219.308 23.3345 219.412 23.5847C219.517 23.835 219.678 24.0331 219.897 24.1791C220.116 24.325 220.418 24.398 220.804 24.398C221.346 24.398 221.815 24.3302 222.211 24.1947C222.617 24.0487 223.034 23.8611 223.461 23.6317C223.628 23.5378 223.784 23.4909 223.93 23.4909C224.17 23.4909 224.357 23.5952 224.493 23.8037C224.639 24.0122 224.712 24.2468 224.712 24.5075C224.712 24.6847 224.686 24.8307 224.634 24.9454C224.331 25.717 223.941 26.4103 223.461 27.0255C222.992 27.6407 222.445 28.162 221.82 28.5895C221.205 29.017 220.528 29.3454 219.788 29.5748C219.048 29.8042 218.256 29.9188 217.412 29.9188C216.244 29.9188 215.244 29.7729 214.41 29.4809C213.576 29.1786 212.873 28.7824 212.3 28.2923C211.727 27.7918 211.268 27.2184 210.924 26.5719C210.58 25.9151 210.315 25.2321 210.127 24.5231C209.95 23.8037 209.83 23.0843 209.767 22.3648C209.715 21.635 209.689 20.9468 209.689 20.3004V12.3867H208.923C208.538 12.3867 208.236 12.2772 208.017 12.0583C207.798 11.8289 207.688 11.5786 207.688 11.3075C207.688 10.9843 207.834 10.7132 208.126 10.4943C209.345 9.61845 210.46 8.7739 211.471 7.96064C212.482 7.13694 213.352 6.40187 214.082 5.75543C214.936 5.00472 215.702 4.30093 216.38 3.64406C216.651 3.37297 216.927 3.17487 217.208 3.04975C217.49 2.91421 217.761 2.84644 218.021 2.84644C218.344 2.84644 218.615 2.95591 218.834 3.17487C219.053 3.39383 219.162 3.73269 219.162 4.19145V9.25873H222.977C223.102 9.25873 223.248 9.26916 223.414 9.29001C223.591 9.30044 223.758 9.35257 223.915 9.44641C224.071 9.54025 224.201 9.69143 224.305 9.89996C224.42 10.0981 224.477 10.3848 224.477 10.7602C224.477 11.1668 224.425 11.4796 224.321 11.6985C224.217 11.9175 224.086 12.0791 223.93 12.1834C223.774 12.2876 223.607 12.3502 223.43 12.371C223.263 12.3815 223.112 12.3867 222.977 12.3867H219.162L219.194 21.7393Z" fill="black"/>
<path d="M227.995 3.87866C227.995 3.35733 228.083 2.90378 228.26 2.518C228.448 2.12179 228.682 1.78293 228.964 1.50142C229.256 1.20947 229.584 0.969665 229.949 0.781988C230.324 0.583884 230.699 0.427487 231.074 0.312795C231.449 0.198104 231.809 0.119905 232.153 0.0781988C232.507 0.0260663 232.814 0 233.075 0C233.356 0 233.674 0.0260663 234.029 0.0781988C234.393 0.119905 234.763 0.198104 235.138 0.312795C235.514 0.427487 235.884 0.583884 236.248 0.781988C236.613 0.969665 236.936 1.20947 237.217 1.50142C237.509 1.78293 237.739 2.12179 237.905 2.518C238.082 2.90378 238.171 3.35733 238.171 3.87866C238.171 4.38956 238.082 4.84311 237.905 5.23932C237.739 5.63552 237.509 5.97439 237.217 6.2559C236.936 6.53742 236.613 6.77723 236.248 6.97533C235.884 7.16301 235.514 7.31419 235.138 7.42888C234.763 7.54357 234.393 7.62699 234.029 7.67912C233.674 7.72083 233.356 7.74168 233.075 7.74168C232.814 7.74168 232.507 7.72083 232.153 7.67912C231.809 7.62699 231.449 7.54357 231.074 7.42888C230.699 7.31419 230.324 7.16301 229.949 6.97533C229.584 6.77723 229.256 6.53742 228.964 6.2559C228.682 5.97439 228.448 5.64074 228.26 5.25496C228.083 4.85875 227.995 4.39998 227.995 3.87866ZM237.686 23.5691C237.686 23.9862 237.744 24.3094 237.858 24.5388C237.973 24.7682 238.114 24.9454 238.28 25.0705C238.458 25.1852 238.645 25.2634 238.843 25.3051C239.041 25.3468 239.224 25.3937 239.39 25.4459C239.568 25.498 239.713 25.5762 239.828 25.6805C239.943 25.7743 240 25.9359 240 26.1653C240 27.3539 239.385 28.2141 238.155 28.7459C236.926 29.2672 235.149 29.5279 232.825 29.5279C231.699 29.5279 230.704 29.4653 229.839 29.3402C228.974 29.2151 228.245 29.017 227.651 28.7459C227.057 28.4644 226.603 28.1151 226.291 27.698C225.988 27.2705 225.837 26.7596 225.837 26.1653C225.837 25.9359 225.895 25.7743 226.009 25.6805C226.124 25.5762 226.265 25.498 226.431 25.4459C226.598 25.3937 226.78 25.3468 226.978 25.3051C227.176 25.2634 227.359 25.1852 227.526 25.0705C227.692 24.9454 227.833 24.7734 227.948 24.5544C228.062 24.325 228.12 23.9966 228.12 23.5691V15.2175C228.12 14.8004 228.062 14.4772 227.948 14.2478C227.833 14.0184 227.692 13.8464 227.526 13.7317C227.359 13.6066 227.176 13.5232 226.978 13.4815C226.78 13.4398 226.598 13.3928 226.431 13.3407C226.265 13.2886 226.124 13.2156 226.009 13.1218C225.895 13.0175 225.837 12.8507 225.837 12.6213C225.837 12.027 225.988 11.5213 226.291 11.1042C226.603 10.6767 227.057 10.3275 227.651 10.0564C228.245 9.77485 228.974 9.57153 229.839 9.44641C230.704 9.32129 231.699 9.25873 232.825 9.25873C233.95 9.25873 234.836 9.31608 235.482 9.43077C236.128 9.54546 236.613 9.74357 236.936 10.0251C237.27 10.2962 237.478 10.6663 237.561 11.1355C237.645 11.6047 237.686 12.1938 237.686 12.9028V23.5691Z" fill="black"/>
<path d="M32.7891 30.4965C39.9182 30.4965 45.6982 25.4369 45.6982 19.1955C45.6982 12.9542 39.9182 7.89454 32.7891 7.89454C25.6601 7.89454 19.88 12.9542 19.88 19.1955C19.88 22.0369 21.079 24.6361 23.0589 26.6219C22.9024 28.2621 22.386 30.0606 21.8148 31.4103C21.6873 31.7106 21.9342 32.0464 22.2553 31.9947C25.8957 31.3974 28.0596 30.4804 29.0003 30.0025C30.2362 30.3323 31.51 30.4984 32.7891 30.4965Z" fill="#0099FF"/>
</g>
</svg>
