<svg width="186" height="26" viewBox="0 0 186 26" fill="none" xmlns="http://www.w3.org/2000/svg">
<g id="Vector">
<path d="M8.28659 7.15421C9.49 7.15421 10.5157 7.29399 11.3638 7.57355C12.2199 7.85311 12.9185 8.23009 13.4596 8.7045C14.0089 9.17891 14.4087 9.73379 14.659 10.3692C14.9094 11.0045 15.0346 11.678 15.0346 12.3896C15.0346 12.6861 14.9902 12.9487 14.9013 13.1775C14.8125 13.4062 14.6913 13.601 14.5379 13.762C14.3925 13.923 14.2148 14.0458 14.0048 14.1305C13.7948 14.2152 13.5687 14.2576 13.3264 14.2576C13.1164 14.2576 12.9024 14.2195 12.6843 14.1432C12.4662 14.067 12.2603 13.9441 12.0664 13.7747C11.8726 13.6053 11.699 13.385 11.5455 13.1139C11.392 12.8428 11.2749 12.5125 11.1942 12.1228C11.1296 11.8432 11.0326 11.5975 10.9034 11.3857C10.7742 11.174 10.6248 10.996 10.4552 10.852C10.2936 10.6995 10.1119 10.5894 9.90998 10.5216C9.71615 10.4454 9.52231 10.4073 9.32847 10.4073C8.98118 10.4073 8.6783 10.4835 8.41985 10.636C8.16948 10.7885 7.95949 11.013 7.78988 11.3095C7.62027 11.5975 7.49508 11.9533 7.41432 12.3769C7.33355 12.792 7.29317 13.2622 7.29317 13.7874C7.29317 15.8206 7.58392 17.3285 8.16544 18.3112C8.75503 19.2854 9.69595 19.7726 10.9882 19.7726C11.3597 19.7726 11.7393 19.7217 12.127 19.6201C12.5147 19.5099 12.8741 19.3913 13.2052 19.2643C13.5364 19.1372 13.8231 19.0228 14.0654 18.9212C14.3077 18.811 14.4733 18.756 14.5621 18.756C14.7479 18.756 14.8932 18.8407 14.9982 19.0101C15.1032 19.1711 15.1557 19.3575 15.1557 19.5692C15.1557 19.637 15.1517 19.7006 15.1436 19.7599C15.1436 19.8192 15.1315 19.8785 15.1073 19.9378C14.8731 20.5646 14.5419 21.1449 14.1139 21.6787C13.6858 22.2039 13.1729 22.6656 12.5753 23.0637C11.9857 23.4534 11.3153 23.7584 10.5642 23.9787C9.81307 24.1989 8.99733 24.3091 8.11698 24.3091C7.2124 24.3091 6.38455 24.1989 5.63343 23.9787C4.8823 23.7499 4.20387 23.4365 3.59812 23.0383C3.00046 22.6317 2.47548 22.1573 2.02319 21.6151C1.57897 21.0729 1.20341 20.4842 0.896502 19.8488C0.597668 19.205 0.371523 18.5357 0.218068 17.841C0.0726894 17.1379 0 16.4305 0 15.7189C0 14.9988 0.0767277 14.2872 0.230183 13.5841C0.383638 12.8725 0.613821 12.199 0.920732 11.5636C1.22764 10.9283 1.61128 10.3437 2.07165 9.81003C2.53201 9.26786 3.06911 8.80192 3.68293 8.41223C4.29675 8.01407 4.9873 7.70486 5.75458 7.4846C6.52185 7.26434 7.36586 7.15421 8.28659 7.15421Z" fill="white"/>
<path d="M53.8265 8.71721C53.9638 8.62402 54.1415 8.49271 54.3595 8.32328C54.5857 8.14538 54.9168 7.97171 55.353 7.80228C55.7891 7.62438 56.3666 7.47189 57.0854 7.34482C57.8042 7.21775 58.729 7.15421 59.8597 7.15421C60.7077 7.15421 61.4468 7.2601 62.0767 7.47189C62.7067 7.68368 63.2438 7.97171 63.688 8.33599C64.1403 8.70026 64.5118 9.13231 64.8026 9.63213C65.0933 10.1235 65.3235 10.6572 65.4931 11.2333C65.6627 11.8008 65.7798 12.3939 65.8445 13.0123C65.9091 13.6307 65.9414 14.2449 65.9414 14.8548V14.9819C65.9333 15.99 65.9252 16.7694 65.9171 17.32C65.9171 17.8622 65.9171 18.2604 65.9171 18.5145C65.9171 18.7687 65.9171 18.9212 65.9171 18.972C65.9171 19.0144 65.9171 19.0355 65.9171 19.0355C65.9171 19.3913 65.9616 19.6709 66.0504 19.8742C66.1393 20.0691 66.2483 20.2215 66.3775 20.3317C66.5148 20.4333 66.6602 20.5053 66.8137 20.5477C66.9752 20.5816 67.1206 20.6239 67.2498 20.6748C67.3871 20.7171 67.5002 20.7807 67.589 20.8654C67.6778 20.9416 67.7223 21.0729 67.7223 21.2593C67.7223 21.7422 67.6052 22.1573 67.3709 22.5046C67.1448 22.8435 66.8096 23.1273 66.3654 23.356C65.9212 23.5763 65.372 23.7372 64.7178 23.8389C64.0716 23.9406 63.3286 23.9914 62.4886 23.9914C61.6729 23.9914 60.946 23.9406 60.3079 23.8389C59.678 23.7372 59.1449 23.5763 58.7088 23.356C58.2727 23.1273 57.9415 22.8435 57.7154 22.5046C57.4892 22.1573 57.3761 21.7422 57.3761 21.2593C57.3761 21.0729 57.4044 20.9416 57.4609 20.8654C57.5256 20.7807 57.6023 20.7171 57.6911 20.6748C57.78 20.6324 57.8769 20.5943 57.9819 20.5604C58.0869 20.5265 58.1838 20.463 58.2727 20.3698C58.3615 20.2681 58.4342 20.1284 58.4907 19.9505C58.5553 19.7641 58.5876 19.4972 58.5876 19.1499V13.6858C58.5876 13.169 58.5553 12.7073 58.4907 12.3007C58.4342 11.894 58.3373 11.5509 58.2 11.2714C58.0627 10.9918 57.8769 10.78 57.6427 10.636C57.4165 10.4835 57.1298 10.4073 56.7825 10.4073C56.2495 10.4073 55.8618 10.5852 55.6195 10.941C55.3853 11.2883 55.2682 11.7415 55.2682 12.3007V18.9974C55.2682 19.3617 55.3005 19.6455 55.3651 19.8488C55.4297 20.0521 55.5105 20.2088 55.6074 20.319C55.7124 20.4206 55.8214 20.4926 55.9345 20.535C56.0556 20.5774 56.1647 20.6239 56.2616 20.6748C56.3666 20.7171 56.4514 20.7807 56.516 20.8654C56.5806 20.9416 56.6129 21.0729 56.6129 21.2593C56.6129 21.7422 56.52 22.1573 56.3343 22.5046C56.1566 22.8435 55.8739 23.1273 55.4862 23.356C55.1066 23.5763 54.6139 23.7372 54.0082 23.8389C53.4105 23.9406 52.6877 23.9914 51.8396 23.9914C51.0239 23.9914 50.297 23.9406 49.659 23.8389C49.029 23.7372 48.4959 23.5763 48.0598 23.356C47.6237 23.1273 47.2925 22.8435 47.0664 22.5046C46.8402 22.1573 46.7272 21.7422 46.7272 21.2593C46.7272 21.0729 46.7554 20.9416 46.812 20.8654C46.8766 20.7807 46.9533 20.7171 47.0421 20.6748C47.131 20.6324 47.2279 20.5943 47.3329 20.5604C47.446 20.5265 47.5469 20.463 47.6358 20.3698C47.7246 20.2681 47.7973 20.1284 47.8538 19.9505C47.9184 19.7641 47.9508 19.4972 47.9508 19.1499V13.6858C47.9508 12.6522 47.8296 11.8517 47.5873 11.2841C47.3531 10.7165 46.9291 10.4327 46.3152 10.4327C46.0729 10.4327 45.8428 10.4793 45.6247 10.5725C45.4066 10.6657 45.2128 10.8012 45.0432 10.9791C44.8736 11.1485 44.7403 11.3519 44.6434 11.5891C44.5465 11.8263 44.498 12.0846 44.498 12.3642V19.0991C44.498 19.4464 44.5303 19.7175 44.5949 19.9123C44.6676 20.1072 44.7565 20.2554 44.8615 20.3571C44.9665 20.4503 45.0795 20.5181 45.2007 20.5604C45.3299 20.5943 45.447 20.6324 45.552 20.6748C45.657 20.7171 45.7418 20.7807 45.8064 20.8654C45.8791 20.9416 45.9155 21.0729 45.9155 21.2593C45.9155 22.2251 45.4551 22.924 44.5344 23.356C43.6217 23.7796 42.3052 23.9914 40.5849 23.9914C39.753 23.9914 39.01 23.9406 38.3558 23.8389C37.7016 23.7372 37.1483 23.5763 36.696 23.356C36.2518 23.1273 35.9086 22.8435 35.6663 22.5046C35.432 22.1573 35.3149 21.7422 35.3149 21.2593C35.3149 21.0729 35.3593 20.9416 35.4482 20.8654C35.537 20.7807 35.6461 20.7171 35.7753 20.6748C35.9045 20.6324 36.0459 20.5943 36.1993 20.5604C36.3528 20.5265 36.4941 20.463 36.6233 20.3698C36.7526 20.2681 36.8616 20.1284 36.9504 19.9505C37.0393 19.7641 37.0837 19.4972 37.0837 19.1499V12.3642C37.0837 12.0253 37.0393 11.7627 36.9504 11.5763C36.8616 11.39 36.7526 11.2502 36.6233 11.157C36.4941 11.0554 36.3528 10.9876 36.1993 10.9537C36.0459 10.9198 35.9045 10.8817 35.7753 10.8393C35.6461 10.797 35.537 10.7377 35.4482 10.6614C35.3593 10.5767 35.3149 10.4412 35.3149 10.2548C35.3149 9.77191 35.432 9.36104 35.6663 9.02218C35.9005 8.67485 36.2397 8.39105 36.6839 8.17079C37.1362 7.94206 37.6854 7.77687 38.3315 7.67521C38.9777 7.57355 39.7086 7.52272 40.5243 7.52272C40.8959 7.52272 41.231 7.5439 41.5299 7.58626C41.8287 7.62014 42.0912 7.67097 42.3173 7.73875C42.5516 7.79805 42.7535 7.87005 42.9231 7.95477C43.0927 8.03101 43.2381 8.11149 43.3592 8.19621C43.6419 8.39953 43.8398 8.62402 43.9528 8.86969C44.3486 8.55625 44.8251 8.27245 45.3824 8.01831C45.8589 7.79805 46.4404 7.59897 47.1269 7.42106C47.8135 7.24316 48.6171 7.15421 49.5378 7.15421C50.4908 7.15421 51.3349 7.29823 52.0698 7.58626C52.8048 7.86582 53.3903 8.2428 53.8265 8.71721Z" fill="white"/>
<path d="M87.2636 8.71721C87.4009 8.62402 87.5786 8.49271 87.7967 8.32328C88.0228 8.14538 88.3539 7.97171 88.7901 7.80228C89.2262 7.62438 89.8037 7.47189 90.5225 7.34482C91.2413 7.21775 92.1661 7.15421 93.2968 7.15421C94.1449 7.15421 94.8839 7.2601 95.5138 7.47189C96.1438 7.68368 96.6809 7.97171 97.1251 8.33599C97.5774 8.70026 97.9489 9.13231 98.2397 9.63213C98.5304 10.1235 98.7606 10.6572 98.9302 11.2333C99.0998 11.8008 99.217 12.3939 99.2816 13.0123C99.3462 13.6307 99.3785 14.2449 99.3785 14.8548V14.9819C99.3704 15.99 99.3623 16.7694 99.3543 17.32C99.3543 17.8622 99.3543 18.2604 99.3543 18.5145C99.3543 18.7687 99.3543 18.9212 99.3543 18.972C99.3543 19.0144 99.3543 19.0355 99.3543 19.0355C99.3543 19.3913 99.3987 19.6709 99.4875 19.8742C99.5764 20.0691 99.6854 20.2215 99.8146 20.3317C99.9519 20.4333 100.097 20.5053 100.251 20.5477C100.412 20.5816 100.558 20.6239 100.687 20.6748C100.824 20.7171 100.937 20.7807 101.026 20.8654C101.115 20.9416 101.159 21.0729 101.159 21.2593C101.159 21.7422 101.042 22.1573 100.808 22.5046C100.582 22.8435 100.247 23.1273 99.8025 23.356C99.3583 23.5763 98.8091 23.7372 98.1549 23.8389C97.5088 23.9406 96.7657 23.9914 95.9257 23.9914C95.11 23.9914 94.3831 23.9406 93.7451 23.8389C93.1151 23.7372 92.582 23.5763 92.1459 23.356C91.7098 23.1273 91.3786 22.8435 91.1525 22.5046C90.9263 22.1573 90.8133 21.7422 90.8133 21.2593C90.8133 21.0729 90.8415 20.9416 90.8981 20.8654C90.9627 20.7807 91.0394 20.7171 91.1283 20.6748C91.2171 20.6324 91.314 20.5943 91.419 20.5604C91.524 20.5265 91.6209 20.463 91.7098 20.3698C91.7986 20.2681 91.8713 20.1284 91.9278 19.9505C91.9924 19.7641 92.0247 19.4972 92.0247 19.1499V13.6858C92.0247 13.169 91.9924 12.7073 91.9278 12.3007C91.8713 11.894 91.7744 11.5509 91.6371 11.2714C91.4998 10.9918 91.314 10.78 91.0798 10.636C90.8536 10.4835 90.5669 10.4073 90.2196 10.4073C89.6866 10.4073 89.2989 10.5852 89.0566 10.941C88.8224 11.2883 88.7053 11.7415 88.7053 12.3007V18.9974C88.7053 19.3617 88.7376 19.6455 88.8022 19.8488C88.8668 20.0521 88.9476 20.2088 89.0445 20.319C89.1495 20.4206 89.2585 20.4926 89.3716 20.535C89.4927 20.5774 89.6018 20.6239 89.6987 20.6748C89.8037 20.7171 89.8885 20.7807 89.9531 20.8654C90.0177 20.9416 90.05 21.0729 90.05 21.2593C90.05 21.7422 89.9571 22.1573 89.7714 22.5046C89.5937 22.8435 89.311 23.1273 88.9233 23.356C88.5437 23.5763 88.0511 23.7372 87.4453 23.8389C86.8476 23.9406 86.1248 23.9914 85.2767 23.9914C84.461 23.9914 83.7341 23.9406 83.0961 23.8389C82.4661 23.7372 81.933 23.5763 81.4969 23.356C81.0608 23.1273 80.7296 22.8435 80.5035 22.5046C80.2773 22.1573 80.1643 21.7422 80.1643 21.2593C80.1643 21.0729 80.1925 20.9416 80.2491 20.8654C80.3137 20.7807 80.3904 20.7171 80.4792 20.6748C80.5681 20.6324 80.665 20.5943 80.77 20.5604C80.8831 20.5265 80.984 20.463 81.0729 20.3698C81.1617 20.2681 81.2344 20.1284 81.2909 19.9505C81.3556 19.7641 81.3879 19.4972 81.3879 19.1499V13.6858C81.3879 12.6522 81.2667 11.8517 81.0244 11.2841C80.7902 10.7165 80.3662 10.4327 79.7524 10.4327C79.5101 10.4327 79.2799 10.4793 79.0618 10.5725C78.8437 10.6657 78.6499 10.8012 78.4803 10.9791C78.3107 11.1485 78.1774 11.3519 78.0805 11.5891C77.9836 11.8263 77.9351 12.0846 77.9351 12.3642V19.0991C77.9351 19.4464 77.9674 19.7175 78.032 19.9123C78.1047 20.1072 78.1936 20.2554 78.2986 20.3571C78.4036 20.4503 78.5166 20.5181 78.6378 20.5604C78.767 20.5943 78.8841 20.6324 78.9891 20.6748C79.0941 20.7171 79.1789 20.7807 79.2435 20.8654C79.3162 20.9416 79.3526 21.0729 79.3526 21.2593C79.3526 22.2251 78.8922 22.924 77.9715 23.356C77.0588 23.7796 75.7423 23.9914 74.022 23.9914C73.1901 23.9914 72.4471 23.9406 71.7929 23.8389C71.1387 23.7372 70.5854 23.5763 70.1331 23.356C69.6889 23.1273 69.3457 22.8435 69.1034 22.5046C68.8691 22.1573 68.752 21.7422 68.752 21.2593C68.752 21.0729 68.7965 20.9416 68.8853 20.8654C68.9741 20.7807 69.0832 20.7171 69.2124 20.6748C69.3416 20.6324 69.483 20.5943 69.6364 20.5604C69.7899 20.5265 69.9312 20.463 70.0604 20.3698C70.1897 20.2681 70.2987 20.1284 70.3875 19.9505C70.4764 19.7641 70.5208 19.4972 70.5208 19.1499V12.3642C70.5208 12.0253 70.4764 11.7627 70.3875 11.5763C70.2987 11.39 70.1897 11.2502 70.0604 11.157C69.9312 11.0554 69.7899 10.9876 69.6364 10.9537C69.483 10.9198 69.3416 10.8817 69.2124 10.8393C69.0832 10.797 68.9741 10.7377 68.8853 10.6614C68.7965 10.5767 68.752 10.4412 68.752 10.2548C68.752 9.77191 68.8691 9.36104 69.1034 9.02218C69.3376 8.67485 69.6768 8.39105 70.121 8.17079C70.5733 7.94206 71.1225 7.77687 71.7686 7.67521C72.4148 7.57355 73.1457 7.52272 73.9614 7.52272C74.333 7.52272 74.6681 7.5439 74.967 7.58626C75.2658 7.62014 75.5283 7.67097 75.7544 7.73875C75.9887 7.79805 76.1906 7.87005 76.3602 7.95477C76.5298 8.03101 76.6752 8.11149 76.7963 8.19621C77.079 8.39953 77.2769 8.62402 77.39 8.86969C77.7857 8.55625 78.2622 8.27245 78.8195 8.01831C79.296 7.79805 79.8775 7.59897 80.5641 7.42106C81.2506 7.24316 82.0542 7.15421 82.9749 7.15421C83.928 7.15421 84.772 7.29823 85.5069 7.58626C86.2419 7.86582 86.8275 8.2428 87.2636 8.71721Z" fill="white"/>
<path d="M115.092 12.415C115.092 12.0677 115.047 11.7966 114.958 11.6018C114.869 11.4069 114.756 11.2629 114.619 11.1697C114.49 11.0681 114.348 11.0003 114.195 10.9664C114.042 10.924 113.896 10.8817 113.759 10.8393C113.63 10.797 113.521 10.7377 113.432 10.6614C113.343 10.5767 113.299 10.4412 113.299 10.2548C113.299 9.28904 113.775 8.59437 114.728 8.17079C115.681 7.73875 117.058 7.52272 118.859 7.52272C119.465 7.52272 119.974 7.58202 120.386 7.70062C120.798 7.81923 121.137 7.98442 121.403 8.19621C121.678 8.408 121.888 8.66214 122.033 8.95865C122.187 9.25515 122.296 9.58554 122.36 9.94982C122.433 10.3056 122.474 10.6868 122.482 11.0935C122.498 11.5001 122.506 11.9237 122.506 12.3642V19.1753C122.506 19.5142 122.546 19.7768 122.627 19.9632C122.716 20.1495 122.825 20.2936 122.954 20.3952C123.091 20.4884 123.233 20.5519 123.378 20.5858C123.532 20.6197 123.673 20.6578 123.802 20.7002C123.939 20.7425 124.048 20.8061 124.129 20.8908C124.218 20.967 124.262 21.0984 124.262 21.2847C124.262 22.2505 123.794 22.9494 122.857 23.3814C121.928 23.805 120.596 24.0168 118.859 24.0168C118.431 24.0168 118.052 23.9829 117.72 23.9151C117.389 23.8474 117.099 23.7584 116.848 23.6483C116.606 23.5382 116.396 23.4153 116.218 23.2798C116.041 23.1358 115.891 22.9875 115.77 22.835C115.487 22.4962 115.31 22.1022 115.237 21.6532C114.817 22.1531 114.32 22.5978 113.747 22.9875C113.504 23.1569 113.23 23.3221 112.923 23.4831C112.616 23.6356 112.281 23.7754 111.917 23.9024C111.554 24.021 111.158 24.1185 110.73 24.1947C110.31 24.2709 109.862 24.3091 109.385 24.3091C108.497 24.3091 107.73 24.1947 107.084 23.966C106.437 23.7288 105.888 23.4153 105.436 23.0256C104.992 22.6359 104.632 22.1827 104.358 21.6659C104.083 21.1492 103.869 20.607 103.716 20.0394C103.562 19.4718 103.457 18.9 103.401 18.3239C103.352 17.7394 103.328 17.1845 103.328 16.6593V12.4786C103.328 12.1228 103.284 11.8474 103.195 11.6526C103.106 11.4493 102.993 11.2968 102.855 11.1951C102.718 11.085 102.573 11.013 102.419 10.9791C102.266 10.9367 102.12 10.8944 101.983 10.852C101.846 10.8012 101.733 10.7377 101.644 10.6614C101.555 10.5767 101.511 10.4412 101.511 10.2548C101.511 9.28904 101.987 8.59437 102.94 8.17079C103.893 7.73875 105.27 7.52272 107.071 7.52272C107.871 7.52272 108.509 7.62438 108.986 7.8277C109.462 8.03101 109.826 8.31057 110.076 8.66638C110.326 9.01371 110.488 9.42882 110.561 9.91169C110.633 10.3946 110.67 10.9156 110.67 11.4747V17.7521C110.67 18.2773 110.706 18.7475 110.779 19.1626C110.859 19.5692 110.989 19.9166 111.166 20.2046C111.352 20.4926 111.594 20.7129 111.893 20.8654C112.192 21.0094 112.564 21.0814 113.008 21.0814C113.29 21.0814 113.557 21.0348 113.807 20.9416C114.058 20.8484 114.276 20.7171 114.462 20.5477C114.647 20.3783 114.793 20.1792 114.898 19.9505C115.011 19.7133 115.067 19.4549 115.067 19.1753L115.092 12.415Z" fill="white"/>
<path d="M134.512 19.0991C134.512 19.4464 134.556 19.7175 134.645 19.9123C134.734 20.1072 134.843 20.2554 134.972 20.3571C135.109 20.4503 135.255 20.5181 135.408 20.5604C135.562 20.5943 135.703 20.6324 135.832 20.6748C135.97 20.7171 136.083 20.7807 136.171 20.8654C136.26 20.9416 136.305 21.0729 136.305 21.2593C136.305 22.2251 135.828 22.924 134.875 23.356C133.922 23.7796 132.545 23.9914 130.744 23.9914C129.872 23.9914 129.1 23.9406 128.43 23.8389C127.76 23.7372 127.194 23.5763 126.734 23.356C126.274 23.1273 125.922 22.8435 125.68 22.5046C125.446 22.1573 125.329 21.7422 125.329 21.2593C125.329 21.0729 125.373 20.9416 125.462 20.8654C125.551 20.7807 125.66 20.7171 125.789 20.6748C125.918 20.6324 126.06 20.5943 126.213 20.5604C126.366 20.5265 126.508 20.463 126.637 20.3698C126.766 20.2681 126.875 20.1284 126.964 19.9505C127.053 19.7641 127.097 19.4972 127.097 19.1499V12.3642C127.097 12.0253 127.053 11.7627 126.964 11.5763C126.875 11.39 126.766 11.2502 126.637 11.157C126.508 11.0554 126.366 10.9876 126.213 10.9537C126.06 10.9198 125.918 10.8817 125.789 10.8393C125.66 10.797 125.551 10.7377 125.462 10.6614C125.373 10.5767 125.329 10.4412 125.329 10.2548C125.329 9.77191 125.446 9.36104 125.68 9.02218C125.922 8.67485 126.274 8.39105 126.734 8.17079C127.194 7.94206 127.76 7.77687 128.43 7.67521C129.1 7.57355 129.872 7.52272 130.744 7.52272C131.535 7.52272 132.165 7.59473 132.634 7.73875C133.102 7.87429 133.466 8.02678 133.724 8.19621C134.023 8.39953 134.229 8.62402 134.342 8.86969C134.762 8.55625 135.263 8.27245 135.844 8.01831C136.345 7.79805 136.955 7.59897 137.674 7.42106C138.401 7.24316 139.249 7.15421 140.218 7.15421C141.106 7.15421 141.869 7.27281 142.508 7.51001C143.154 7.73875 143.699 8.05219 144.143 8.45035C144.595 8.84004 144.959 9.29751 145.233 9.82274C145.508 10.3395 145.718 10.8817 145.863 11.4493C146.017 12.0169 146.118 12.5929 146.166 13.1775C146.223 13.7535 146.251 14.3042 146.251 14.8294V19.0355C146.251 19.3913 146.295 19.6709 146.384 19.8742C146.473 20.0691 146.586 20.2215 146.723 20.3317C146.861 20.4333 147.006 20.5053 147.16 20.5477C147.321 20.5816 147.471 20.6239 147.608 20.6748C147.745 20.7171 147.858 20.7807 147.947 20.8654C148.036 20.9416 148.08 21.0729 148.08 21.2593C148.08 22.2251 147.604 22.924 146.651 23.356C145.706 23.7796 144.333 23.9914 142.532 23.9914C141.659 23.9914 140.888 23.9406 140.218 23.8389C139.547 23.7372 138.982 23.5763 138.522 23.356C138.061 23.1273 137.71 22.8435 137.468 22.5046C137.233 22.1573 137.116 21.7422 137.116 21.2593C137.116 21.0729 137.161 20.9416 137.25 20.8654C137.339 20.7807 137.452 20.7171 137.589 20.6748C137.726 20.6324 137.872 20.5943 138.025 20.5604C138.178 20.5265 138.324 20.463 138.461 20.3698C138.598 20.2681 138.712 20.1284 138.8 19.9505C138.889 19.7641 138.934 19.4972 138.934 19.1499V13.7239C138.934 13.1986 138.893 12.7327 138.812 12.3261C138.74 11.911 138.611 11.5636 138.425 11.2841C138.247 10.996 138.009 10.78 137.71 10.636C137.411 10.4835 137.04 10.4073 136.595 10.4073C136.313 10.4073 136.046 10.4581 135.796 10.5598C135.546 10.653 135.327 10.7885 135.142 10.9664C134.956 11.1358 134.806 11.3434 134.693 11.5891C134.588 11.8263 134.536 12.0846 134.536 12.3642L134.512 19.0991Z" fill="white"/>
<path d="M150.867 3.15141C150.867 2.72783 150.935 2.35932 151.073 2.04588C151.218 1.72396 151.4 1.44863 151.618 1.2199C151.844 0.982698 152.098 0.787853 152.381 0.635365C152.672 0.474406 152.963 0.347333 153.253 0.254146C153.544 0.160959 153.823 0.0974226 154.089 0.0635365C154.364 0.0211788 154.602 0 154.804 0C155.022 0 155.269 0.0211788 155.543 0.0635365C155.826 0.0974226 156.113 0.160959 156.403 0.254146C156.694 0.347333 156.981 0.474406 157.263 0.635365C157.546 0.787853 157.797 0.982698 158.015 1.2199C158.241 1.44863 158.418 1.72396 158.548 2.04588C158.685 2.35932 158.754 2.72783 158.754 3.15141C158.754 3.56652 158.685 3.93503 158.548 4.25695C158.418 4.57886 158.241 4.85419 158.015 5.08292C157.797 5.31165 157.546 5.5065 157.263 5.66746C156.981 5.81994 156.694 5.94278 156.403 6.03597C156.113 6.12915 155.826 6.19693 155.543 6.23928C155.269 6.27317 155.022 6.29011 154.804 6.29011C154.602 6.29011 154.364 6.27317 154.089 6.23928C153.823 6.19693 153.544 6.12915 153.253 6.03597C152.963 5.94278 152.672 5.81994 152.381 5.66746C152.098 5.5065 151.844 5.31165 151.618 5.08292C151.4 4.85419 151.218 4.5831 151.073 4.26965C150.935 3.94773 150.867 3.57499 150.867 3.15141ZM158.378 19.1499C158.378 19.4888 158.422 19.7514 158.511 19.9378C158.6 20.1241 158.709 20.2681 158.838 20.3698C158.976 20.463 159.121 20.5265 159.275 20.5604C159.428 20.5943 159.569 20.6324 159.699 20.6748C159.836 20.7171 159.949 20.7807 160.038 20.8654C160.127 20.9416 160.171 21.0729 160.171 21.2593C160.171 22.2251 159.695 22.924 158.741 23.356C157.788 23.7796 156.411 23.9914 154.61 23.9914C153.738 23.9914 152.967 23.9406 152.296 23.8389C151.626 23.7372 151.061 23.5763 150.6 23.356C150.14 23.1273 149.789 22.8435 149.546 22.5046C149.312 22.1573 149.195 21.7422 149.195 21.2593C149.195 21.0729 149.239 20.9416 149.328 20.8654C149.417 20.7807 149.526 20.7171 149.655 20.6748C149.785 20.6324 149.926 20.5943 150.079 20.5604C150.233 20.5265 150.374 20.463 150.503 20.3698C150.633 20.2681 150.742 20.1284 150.83 19.9505C150.919 19.7641 150.964 19.4972 150.964 19.1499V12.3642C150.964 12.0253 150.919 11.7627 150.83 11.5763C150.742 11.39 150.633 11.2502 150.503 11.157C150.374 11.0554 150.233 10.9876 150.079 10.9537C149.926 10.9198 149.785 10.8817 149.655 10.8393C149.526 10.797 149.417 10.7377 149.328 10.6614C149.239 10.5767 149.195 10.4412 149.195 10.2548C149.195 9.77191 149.312 9.36104 149.546 9.02218C149.789 8.67485 150.14 8.39105 150.6 8.17079C151.061 7.94206 151.626 7.77687 152.296 7.67521C152.967 7.57355 153.738 7.52272 154.61 7.52272C155.483 7.52272 156.169 7.56931 156.67 7.6625C157.171 7.75569 157.546 7.91665 157.797 8.14538C158.055 8.36564 158.216 8.66638 158.281 9.0476C158.346 9.42882 158.378 9.90746 158.378 10.4835V19.1499Z" fill="white"/>
<path d="M169.875 17.6631C169.875 17.9427 169.883 18.2138 169.899 18.4764C169.915 18.7306 169.964 18.9593 170.045 19.1626C170.125 19.3659 170.251 19.5269 170.42 19.6455C170.59 19.7641 170.824 19.8234 171.123 19.8234C171.543 19.8234 171.906 19.7683 172.213 19.6582C172.528 19.5396 172.851 19.3871 173.182 19.2007C173.312 19.1245 173.433 19.0864 173.546 19.0864C173.732 19.0864 173.877 19.1711 173.982 19.3405C174.095 19.5099 174.152 19.7006 174.152 19.9123C174.152 20.0564 174.131 20.175 174.091 20.2681C173.857 20.895 173.554 21.4584 173.182 21.9582C172.819 22.458 172.395 22.8816 171.91 23.2289C171.434 23.5763 170.909 23.8431 170.335 24.0295C169.762 24.2159 169.148 24.3091 168.494 24.3091C167.589 24.3091 166.814 24.1905 166.168 23.9533C165.522 23.7076 164.977 23.3857 164.532 22.9875C164.088 22.5809 163.733 22.1149 163.466 21.5897C163.2 21.056 162.994 20.5011 162.848 19.925C162.711 19.3405 162.618 18.756 162.57 18.1714C162.529 17.5784 162.509 17.0193 162.509 16.4941V10.0642H161.916C161.617 10.0642 161.383 9.97523 161.213 9.79733C161.043 9.61095 160.958 9.40764 160.958 9.18738C160.958 8.92476 161.072 8.7045 161.298 8.5266C162.243 7.81499 163.107 7.1288 163.89 6.46802C164.674 5.79876 165.348 5.20152 165.913 4.67629C166.576 4.06634 167.169 3.49451 167.694 2.9608C167.904 2.74054 168.118 2.57958 168.336 2.47792C168.555 2.36779 168.765 2.31273 168.966 2.31273C169.217 2.31273 169.427 2.40168 169.596 2.57958C169.766 2.75748 169.851 3.03281 169.851 3.40556V7.52272H172.807C172.904 7.52272 173.017 7.53119 173.146 7.54814C173.283 7.55661 173.413 7.59897 173.534 7.67521C173.655 7.75145 173.756 7.87429 173.837 8.04372C173.925 8.20468 173.97 8.43765 173.97 8.74262C173.97 9.07301 173.93 9.32716 173.849 9.50506C173.768 9.68296 173.667 9.81427 173.546 9.89899C173.425 9.9837 173.296 10.0345 173.158 10.0515C173.029 10.0599 172.912 10.0642 172.807 10.0642H169.851L169.875 17.6631Z" fill="white"/>
<path d="M176.696 3.15141C176.696 2.72783 176.764 2.35932 176.902 2.04588C177.047 1.72396 177.229 1.44863 177.447 1.2199C177.673 0.982698 177.927 0.787853 178.21 0.635365C178.501 0.474406 178.792 0.347333 179.082 0.254146C179.373 0.160959 179.652 0.0974226 179.918 0.0635365C180.193 0.0211788 180.431 0 180.633 0C180.851 0 181.097 0.0211788 181.372 0.0635365C181.655 0.0974226 181.942 0.160959 182.232 0.254146C182.523 0.347333 182.81 0.474406 183.092 0.635365C183.375 0.787853 183.625 0.982698 183.844 1.2199C184.07 1.44863 184.247 1.72396 184.377 2.04588C184.514 2.35932 184.583 2.72783 184.583 3.15141C184.583 3.56652 184.514 3.93503 184.377 4.25695C184.247 4.57886 184.07 4.85419 183.844 5.08292C183.625 5.31165 183.375 5.5065 183.092 5.66746C182.81 5.81994 182.523 5.94278 182.232 6.03597C181.942 6.12915 181.655 6.19693 181.372 6.23928C181.097 6.27317 180.851 6.29011 180.633 6.29011C180.431 6.29011 180.193 6.27317 179.918 6.23928C179.652 6.19693 179.373 6.12915 179.082 6.03597C178.792 5.94278 178.501 5.81994 178.21 5.66746C177.927 5.5065 177.673 5.31165 177.447 5.08292C177.229 4.85419 177.047 4.5831 176.902 4.26965C176.764 3.94773 176.696 3.57499 176.696 3.15141ZM184.207 19.1499C184.207 19.4888 184.251 19.7514 184.34 19.9378C184.429 20.1241 184.538 20.2681 184.667 20.3698C184.805 20.463 184.95 20.5265 185.104 20.5604C185.257 20.5943 185.398 20.6324 185.528 20.6748C185.665 20.7171 185.778 20.7807 185.867 20.8654C185.956 20.9416 186 21.0729 186 21.2593C186 22.2251 185.523 22.924 184.57 23.356C183.617 23.7796 182.24 23.9914 180.439 23.9914C179.567 23.9914 178.796 23.9406 178.125 23.8389C177.455 23.7372 176.89 23.5763 176.429 23.356C175.969 23.1273 175.618 22.8435 175.375 22.5046C175.141 22.1573 175.024 21.7422 175.024 21.2593C175.024 21.0729 175.068 20.9416 175.157 20.8654C175.246 20.7807 175.355 20.7171 175.484 20.6748C175.613 20.6324 175.755 20.5943 175.908 20.5604C176.062 20.5265 176.203 20.463 176.332 20.3698C176.462 20.2681 176.571 20.1284 176.659 19.9505C176.748 19.7641 176.793 19.4972 176.793 19.1499V12.3642C176.793 12.0253 176.748 11.7627 176.659 11.5763C176.571 11.39 176.462 11.2502 176.332 11.157C176.203 11.0554 176.062 10.9876 175.908 10.9537C175.755 10.9198 175.613 10.8817 175.484 10.8393C175.355 10.797 175.246 10.7377 175.157 10.6614C175.068 10.5767 175.024 10.4412 175.024 10.2548C175.024 9.77191 175.141 9.36104 175.375 9.02218C175.618 8.67485 175.969 8.39105 176.429 8.17079C176.89 7.94206 177.455 7.77687 178.125 7.67521C178.796 7.57355 179.567 7.52272 180.439 7.52272C181.312 7.52272 181.998 7.56931 182.499 7.6625C183 7.75569 183.375 7.91665 183.625 8.14538C183.884 8.36564 184.045 8.66638 184.11 9.0476C184.175 9.42882 184.207 9.90746 184.207 10.4835V19.1499Z" fill="white"/>
<path d="M25.4116 24.7784C30.9366 24.7784 35.4161 20.6675 35.4161 15.5964C35.4161 10.5253 30.9366 6.41432 25.4116 6.41432C19.8866 6.41432 15.407 10.5253 15.407 15.5964C15.407 17.905 16.3362 20.0169 17.8706 21.6303C17.7493 22.963 17.3492 24.4242 16.9065 25.5208C16.8077 25.7648 16.999 26.0377 17.2479 25.9957C20.0691 25.5104 21.7462 24.7653 22.4752 24.377C23.4331 24.645 24.4203 24.7799 25.4116 24.7784Z" fill="#0099FF"/>
</g>
</svg>
